<svg width="17" height="17" viewBox="0 0 17 17" fill="none" xmlns="http://www.w3.org/2000/svg">
<g clip-path="url(#clip0_4651_4395)">
<path d="M8.50003 3.63264C8.50085 3.35448 8.44604 3.07897 8.33882 2.82231C8.23161 2.56564 8.07415 2.33301 7.87571 2.13809C7.67727 1.94317 7.44186 1.7899 7.18332 1.6873C6.92478 1.58469 6.64833 1.53482 6.37023 1.54061C6.09214 1.54641 5.81801 1.60776 5.56397 1.72105C5.30993 1.83434 5.08111 1.99729 4.89096 2.20031C4.70082 2.40332 4.55319 2.64232 4.45676 2.90322C4.36033 3.16413 4.31705 3.44169 4.32946 3.71957C3.92068 3.82467 3.54118 4.02142 3.2197 4.29491C2.89821 4.56841 2.64318 4.91147 2.47391 5.29812C2.30464 5.68476 2.22558 6.10486 2.24271 6.52659C2.25984 6.94832 2.37271 7.36062 2.57277 7.73227C2.22101 8.01805 1.94439 8.38545 1.76699 8.80251C1.58959 9.21957 1.51678 9.67366 1.5549 10.1253C1.59301 10.5769 1.7409 11.0124 1.98568 11.3938C2.23047 11.7752 2.56475 12.0911 2.95944 12.3138C2.9107 12.6909 2.93979 13.074 3.0449 13.4394C3.15002 13.8049 3.32893 14.1448 3.57058 14.4384C3.81224 14.732 4.11152 14.9729 4.44993 15.1462C4.78833 15.3196 5.15869 15.4217 5.53812 15.4464C5.91756 15.471 6.29801 15.4176 6.65599 15.2894C7.01396 15.1612 7.34186 14.961 7.61943 14.7011C7.89701 14.4413 8.11836 14.1273 8.26981 13.7785C8.42127 13.4297 8.49963 13.0536 8.50003 12.6734V3.63264Z" stroke="#171A1C" stroke-width="1.25" stroke-linecap="round" stroke-linejoin="round"/>
<path d="M6.4137 9.1962C6.99756 8.99081 7.50741 8.61689 7.87877 8.12174C8.25013 7.6266 8.46633 7.03245 8.50002 6.41443" stroke="#171A1C" stroke-width="1.25" stroke-linecap="round" stroke-linejoin="round"/>
<path d="M8.50003 3.72065C8.49921 3.44249 8.55402 3.16698 8.66124 2.91032C8.76845 2.65366 8.92591 2.42102 9.12435 2.22611C9.32279 2.03119 9.5582 1.87792 9.81674 1.77531C10.0753 1.6727 10.3517 1.62283 10.6298 1.62863C10.9079 1.63442 11.1821 1.69577 11.4361 1.80906C11.6901 1.92235 11.919 2.0853 12.1091 2.28832C12.2992 2.49134 12.4469 2.73033 12.5433 2.99124C12.6397 3.25214 12.683 3.5297 12.6706 3.80758C13.0794 3.91269 13.4589 4.10944 13.7804 4.38293C14.1018 4.65642 14.3569 4.99948 14.5261 5.38613C14.6954 5.77278 14.7745 6.19287 14.7574 6.6146C14.7402 7.03633 14.6274 7.44864 14.4273 7.82028C14.7791 8.10606 15.0557 8.47346 15.2331 8.89052C15.4105 9.30759 15.4833 9.76168 15.4452 10.2133C15.407 10.6649 15.2592 11.1004 15.0144 11.4818C14.7696 11.8632 14.4353 12.1791 14.0406 12.4019C14.0894 12.779 14.0603 13.162 13.9552 13.5275C13.85 13.8929 13.6711 14.2328 13.4295 14.5264C13.1878 14.82 12.8885 15.0609 12.5501 15.2342C12.2117 15.4076 11.8414 15.5097 11.4619 15.5344C11.0825 15.559 10.7021 15.5056 10.3441 15.3774C9.9861 15.2492 9.6582 15.049 9.38063 14.7891C9.10306 14.5293 8.88171 14.2153 8.73025 13.8665C8.57879 13.5177 8.50044 13.1416 8.50003 12.7614V3.72065Z" stroke="#171A1C" stroke-width="1.25" stroke-linecap="round" stroke-linejoin="round"/>
<path d="M10.5864 9.28409C10.0025 9.0787 9.49266 8.70478 9.12129 8.20963C8.74993 7.71449 8.53373 7.12034 8.50004 6.50232" stroke="#171A1C" stroke-width="1.25" stroke-linecap="round" stroke-linejoin="round"/>
</g>
<defs>
<clipPath id="clip0_4651_4395">
<rect width="17" height="17" fill="white"/>
</clipPath>
</defs>
</svg>
