<svg width="17" height="17" viewBox="0 0 17 17" fill="none" xmlns="http://www.w3.org/2000/svg">
<path d="M10.1865 2.18262L13.7959 5.78613L13.9795 5.96973V12.1094C13.9795 13.6972 12.6923 14.9844 11.1045 14.9844H5.875C4.28722 14.9844 3 13.6972 3 12.1094V11.125C3 10.2272 3.72788 9.5 4.625 9.5H8.11523L7.18262 8.56738C6.93854 8.32331 6.93854 7.92669 7.18262 7.68262C7.42669 7.43854 7.82331 7.43854 8.06738 7.68262L10.0674 9.68262C10.3115 9.92669 10.3115 10.3233 10.0674 10.5674L8.06738 12.5674C7.82331 12.8115 7.42669 12.8115 7.18262 12.5674C6.93854 12.3233 6.93854 11.9267 7.18262 11.6826L8.11523 10.75H4.625C4.41755 10.75 4.25 10.9182 4.25 11.125V12.1094C4.25 13.0068 4.9775 13.7344 5.875 13.7344H11.1045C12.0019 13.7344 12.7295 13.0068 12.7295 12.1094V7.11426C12.6954 7.12001 12.6607 7.125 12.625 7.125H10C9.10254 7.125 8.375 6.39746 8.375 5.5V3.25H5.9248C4.99988 3.25011 4.25011 3.99988 4.25 4.9248V5.625C4.25 5.97018 3.97018 6.25 3.625 6.25C3.27982 6.25 3 5.97018 3 5.625V4.9248C3.00011 3.30953 4.30953 2.00011 5.9248 2H10.0029L10.1865 2.18262ZM9.625 5.5C9.625 5.70711 9.79289 5.875 10 5.875H12.1162L9.625 3.38867V5.5Z" fill="#171A1C"/>
<path d="M9 3V5.5C9 6.05228 9.44772 6.5 10 6.5H12.5" stroke="#171A1C" stroke-width="1.25" stroke-linecap="round"/>
</svg>
