<svg width="17" height="17" viewBox="0 0 17 17" fill="none" xmlns="http://www.w3.org/2000/svg">
<path d="M13.6791 12.6316C13.8945 12.3619 13.8505 11.9686 13.5808 11.7532C13.3111 11.5378 12.9178 11.5818 12.7024 11.8515L13.1908 12.2416L13.6791 12.6316ZM8.5 14.5V13.875C5.53147 13.875 3.125 11.4685 3.125 8.5H2.5H1.875C1.875 12.1589 4.84111 15.125 8.5 15.125V14.5ZM2.5 8.5H3.125C3.125 5.53147 5.53147 3.125 8.5 3.125V2.5V1.875C4.84111 1.875 1.875 4.84111 1.875 8.5H2.5ZM8.5 2.5V3.125C10.3381 3.125 12.0459 4.47675 13.0485 6.06447L13.5769 5.73077L14.1054 5.39707C12.9824 3.61871 10.9372 1.875 8.5 1.875V2.5ZM13.1908 12.2416L12.7024 11.8515C11.7165 13.0859 10.2006 13.875 8.5 13.875V14.5V15.125C10.5967 15.125 12.4662 14.1502 13.6791 12.6316L13.1908 12.2416Z" fill="black"/>
<path d="M14.5 6.5H11.5L14.5 3.5V6.5Z" fill="black" stroke="black" stroke-width="1.25" stroke-linecap="round" stroke-linejoin="round"/>
</svg>
