<svg width="17" height="17" viewBox="0 0 17 17" fill="none" xmlns="http://www.w3.org/2000/svg">
<path d="M14.5 10.5L12.5 12.5V15.5M9.5 13.5L8.37868 14.6213C7.81607 15.1839 7.05301 15.5 6.25736 15.5H4.5C3.94772 15.5 3.5 15.0523 3.5 14.5V11.5H1.5L3.5 6.5C3.5 3.73858 5.73858 1.5 8.5 1.5" stroke="#171A1C" stroke-width="1.25" stroke-linecap="round" stroke-linejoin="round"/>
<circle cx="12.5" cy="5.5" r="4" stroke="#171A1C"/>
<path d="M12.75 1.59998C12.75 1.59998 10.35 2.79998 10.35 5.49998C10.35 8.19998 12.75 9.39998 12.75 9.39998" stroke="#171A1C" stroke-width="1.01299" stroke-linecap="round" stroke-linejoin="round"/>
<path d="M12.25 1.60004C12.25 1.60004 14.65 2.80004 14.65 5.50004C14.65 8.20004 12.25 9.40004 12.25 9.40004" stroke="#171A1C" stroke-width="1.01299" stroke-linecap="round" stroke-linejoin="round"/>
<path d="M9 4H16M9 7H16" stroke="#171A1C" stroke-linecap="round" stroke-linejoin="round"/>
</svg>
