<svg width="17" height="17" viewBox="0 0 17 17" fill="none" xmlns="http://www.w3.org/2000/svg">
<path d="M12.7493 2.125H10.6243C10.2331 2.125 9.91602 2.44213 9.91602 2.83333V14.1667C9.91602 14.5579 10.2331 14.875 10.6243 14.875H12.7493C13.1406 14.875 13.4577 14.5579 13.4577 14.1667V2.83333C13.4577 2.44213 13.1406 2.125 12.7493 2.125Z" stroke="currentColor" stroke-width="1.15" stroke-linecap="round" stroke-linejoin="round"/>
<path d="M6.37435 2.125H4.24935C3.85815 2.125 3.54102 2.44213 3.54102 2.83333V14.1667C3.54102 14.5579 3.85815 14.875 4.24935 14.875H6.37435C6.76555 14.875 7.08268 14.5579 7.08268 14.1667V2.83333C7.08268 2.44213 6.76555 2.125 6.37435 2.125Z" stroke="currentColor" stroke-width="1.15" stroke-linecap="round" stroke-linejoin="round"/>
</svg>
