<svg width="17" height="17" viewBox="0 0 17 17" fill="none" xmlns="http://www.w3.org/2000/svg">
<path d="M8.59277 2.52539C8.77804 2.36659 9.03903 2.33073 9.26074 2.43262C9.48249 2.53461 9.625 2.75592 9.625 3V14C9.625 14.2441 9.48249 14.4654 9.26074 14.5674C9.03903 14.6693 8.77804 14.6334 8.59277 14.4746L5.26855 11.625H2C1.65482 11.625 1.375 11.3452 1.375 11V6C1.375 5.65482 1.65482 5.375 2 5.375H5.26855L8.59277 2.52539Z" stroke="black" stroke-width="1.25" stroke-linejoin="round"/>
<path d="M11.5 5C13.7824 6.77519 13.7824 10.2248 11.5 12" stroke="black" stroke-width="1.25" stroke-linecap="round" stroke-linejoin="round"/>
<path d="M12 3L12.9954 3.78209C16.0528 6.18436 16.0528 10.8156 12.9954 13.2179L12 14" stroke="black" stroke-width="1.25" stroke-linecap="round" stroke-linejoin="round"/>
</svg>
