<svg width="17" height="17" viewBox="0 0 17 17" fill="none" xmlns="http://www.w3.org/2000/svg">
<path d="M10.1963 2.18262L13.8057 5.78613L13.9893 5.96973V9.37793C13.9891 9.72288 13.7092 10.0028 13.3643 10.0029C13.0193 10.0028 12.7394 9.72289 12.7393 9.37793V7.11426C12.7052 7.12003 12.6705 7.12499 12.6348 7.125H10.0098C9.1123 7.125 8.38477 6.39746 8.38477 5.5V3.25H5.93457C5.00965 3.25011 4.25987 3.99988 4.25977 4.9248V9.37793C4.2596 9.72288 3.97972 10.0028 3.63477 10.0029C3.28969 10.0029 3.00993 9.72297 3.00977 9.37793V4.9248C3.00987 3.30953 4.31929 2.00011 5.93457 2H10.0127L10.1963 2.18262ZM9.63477 5.5C9.63477 5.70711 9.80266 5.875 10.0098 5.875H12.126L9.63477 3.38867V5.5Z" fill="#3F4B5A"/>
<path d="M11.4559 15C11.175 15 10.9473 14.7723 10.9473 14.4913V11.5857C10.9473 11.2622 11.2095 11 11.533 11H13.2605C13.4863 11 13.6694 11.1831 13.6694 11.4089C13.6694 11.6347 13.4863 11.8177 13.2605 11.8177H11.9646V12.7297H13.1247C13.3398 12.7297 13.5141 12.9041 13.5141 13.1192C13.5141 13.3343 13.3398 13.5087 13.1247 13.5087H11.9646V14.4913C11.9646 14.7723 11.7369 15 11.4559 15Z" fill="#3F4B5A"/>
<path d="M7.63065 15C7.30716 15 7.04492 14.7378 7.04492 14.4143V11.5857C7.04492 11.2622 7.30716 11 7.63065 11H8.72476C9.12392 11 9.46211 11.0767 9.73931 11.2301C10.0184 11.3816 10.2309 11.6034 10.3769 11.8954C10.5229 12.1873 10.5959 12.5412 10.5959 12.957V12.9626C10.5959 13.3987 10.5238 13.7692 10.3796 14.0742C10.2355 14.3772 10.0239 14.6073 9.74485 14.7644C9.46765 14.9215 9.12762 15 8.72476 15H7.63065ZM8.06225 14.1823H8.5418C8.76172 14.1823 8.94652 14.137 9.0962 14.0464C9.24774 13.9559 9.36232 13.8219 9.43993 13.6445C9.5194 13.4652 9.55913 13.2444 9.55913 12.982V12.9764C9.55913 12.7288 9.51847 12.5191 9.43716 12.3472C9.3577 12.1735 9.24127 12.0423 9.08789 11.9536C8.93635 11.863 8.75432 11.8177 8.5418 11.8177H8.06225V14.1823Z" fill="#3F4B5A"/>
<path d="M4.01981 13.8302V13.0596H4.98724C5.20346 13.0596 5.37163 13.0051 5.49175 12.896C5.61372 12.787 5.6747 12.629 5.6747 12.422V12.4165C5.6747 12.2077 5.61372 12.0497 5.49175 11.9425C5.37163 11.8353 5.20346 11.7817 4.98724 11.7817H4.01981V11H5.23395C5.53148 11 5.7902 11.0591 6.01011 11.1774C6.23002 11.2938 6.40004 11.4583 6.52016 11.6708C6.64213 11.8815 6.70311 12.1301 6.70311 12.4165V12.422C6.70311 12.7066 6.64213 12.9552 6.52016 13.1677C6.40004 13.3784 6.23002 13.5419 6.01011 13.6584C5.7902 13.7729 5.53148 13.8302 5.23395 13.8302H4.01981ZM4.01843 15C3.7375 15 3.50977 14.7723 3.50977 14.4913V11.5857C3.50977 11.2622 3.77201 11 4.09549 11H4.52709V14.4913C4.52709 14.7723 4.29935 15 4.01843 15Z" fill="#3F4B5A"/>
</svg>
