<svg xmlns="http://www.w3.org/2000/svg" width="100" height="100" viewBox="0 0 17 17" fill="none">
  <g id="camera">
    <path d="M2.75 9.99994V11.9839C2.75 13.0885 3.64543 13.984 4.75 13.984H9.75C10.8546 13.984 11.75 13.0885 11.75 11.9839V10.992" stroke="#171A1C" stroke-width="1.25" stroke-linecap="round"/>
    <path d="M11.75 8V6.84998C11.75 5.74541 10.8546 4.84998 9.75 4.84998H7.75" stroke="#171A1C" stroke-width="1.25" stroke-linecap="round"/>
    <path d="M11.75 11.3V10.6519L14.8548 12.2324C14.905 12.2658 14.9634 12.2849 15.0236 12.2878C15.0838 12.2907 15.1437 12.2772 15.1968 12.2487C15.25 12.2203 15.2944 12.1779 15.3254 12.1262C15.3564 12.0745 15.3728 12.0153 15.3728 11.955V6.74859C15.3729 6.68994 15.3574 6.63232 15.328 6.58156C15.2987 6.53079 15.2564 6.48867 15.2056 6.45946C15.1547 6.43024 15.097 6.41496 15.0384 6.41516C14.9797 6.41536 14.9222 6.43103 14.8715 6.46059L11.75 8.16842V7.29998" stroke="#171A1C" stroke-width="1.25" stroke-linecap="round" stroke-linejoin="round"/>
    
    <animate attributeName="opacity" values="1;0.7;1" dur="2s" repeatCount="indefinite" />
  </g>

  <g transform="translate(3.5 5.33)">
    <path d="M-0.24023 0.71822C-0.31243 0.50204 -0.48206 0.3324 -0.69824 0.26021L-1.41895 0.01998L-0.69824 -0.22026C-0.50885 -0.2835 -0.35521 -0.42154 -0.27148 -0.60014L-0.24023 -0.67827L0 -1.39897L0.24023 -0.67827C0.31243 -0.46208 0.48206 -0.29245 0.69824 -0.22026L1.41895 0.01998L0.69824 0.26021C0.48206 0.3324 0.31243 0.50204 0.24023 0.71822L0 1.43892L-0.24023 0.71822Z" stroke="#171A1C">
      <animateTransform attributeName="transform" type="scale" values="1;1.3;1" dur="1.5s" repeatCount="indefinite" />
      <animate attributeName="opacity" values="1;0.2;1" dur="1.5s" repeatCount="indefinite" />
    </path>
  </g>

  <g transform="translate(6.5 8.35)">
    <path d="M0 0.43064C-0.08102 0.23574 -0.2349 0.0812 -0.42969 0C-0.23518 -0.08112 -0.08111 -0.23518 0 -0.42969C0.08123 -0.23491 0.23576 -0.08104 0.43066 0C0.23548 0.08113 0.08113 0.23548 0 0.43064Z" stroke="#171A1C">
      <animateTransform attributeName="transform" type="scale" values="1;1.4;1" dur="1.5s" begin="0.75s" repeatCount="indefinite" />
      <animate attributeName="opacity" values="1;0.2;1" dur="1.5s" begin="0.75s" repeatCount="indefinite" />
    </path>
  </g>
</svg>