<svg width="17" height="17" viewBox="0 0 17 17" fill="none" xmlns="http://www.w3.org/2000/svg">
<circle cx="8.5" cy="8.5" r="2.125" stroke="#171A1C" stroke-width="1.25"/>
<path d="M8.5 1.625C8.87562 1.625 9.12201 1.62585 9.3125 1.64062C9.49434 1.65474 9.57889 1.67948 9.63477 1.70508C9.77154 1.76783 9.89016 1.86452 9.97852 1.98633C10.0146 2.0361 10.0559 2.11423 10.1055 2.29004C10.1573 2.47393 10.2056 2.71567 10.2793 3.08398L10.3037 3.20801C10.3295 3.33671 10.3642 3.54669 10.4717 3.73047C10.5182 3.80994 10.5742 3.88342 10.6387 3.94922C10.7876 4.10121 10.9812 4.18935 11.0986 4.24805L11.4463 4.42188C11.528 4.46273 11.6568 4.5315 11.8018 4.56543C11.8897 4.58602 11.98 4.5957 12.0703 4.59473C12.2192 4.59306 12.3606 4.55439 12.4492 4.53223L12.6582 4.47949C13.1446 4.35789 13.2672 4.33334 13.3691 4.33691C13.5655 4.34384 13.7543 4.41693 13.9043 4.54395C13.982 4.6099 14.0562 4.71126 14.334 5.12793C14.6992 5.67582 14.7844 5.81967 14.8145 5.94141C14.8729 6.17792 14.83 6.42822 14.6963 6.63184C14.6274 6.73664 14.4988 6.8449 13.9717 7.24023L13.9248 7.27539C13.8514 7.33045 13.7313 7.41519 13.6367 7.52832C13.5523 7.62924 13.4869 7.74412 13.4424 7.86719L13.4053 7.99219C13.3716 8.1355 13.375 8.28222 13.375 8.37402V8.62598C13.375 8.71778 13.3716 8.8645 13.4053 9.00781C13.4454 9.17831 13.5244 9.33729 13.6367 9.47168C13.7313 9.58481 13.8514 9.66955 13.9248 9.72461L13.9717 9.75977C14.4988 10.1551 14.6274 10.2634 14.6963 10.3682C14.83 10.5718 14.8729 10.8221 14.8145 11.0586C14.7844 11.1803 14.6992 11.3242 14.334 11.8721C14.0562 12.2887 13.982 12.3901 13.9043 12.4561C13.7543 12.5831 13.5655 12.6562 13.3691 12.6631C13.2672 12.6667 13.1446 12.6421 12.6582 12.5205L12.4492 12.4678C12.3828 12.4512 12.2871 12.4249 12.1807 12.4121L12.0703 12.4053C12.0252 12.4048 11.9803 12.4072 11.9355 12.4121L11.8018 12.4346C11.6568 12.4685 11.528 12.5373 11.4463 12.5781L11.0986 12.752C11.0105 12.796 10.8797 12.8565 10.7568 12.9482L10.6387 13.0508C10.6063 13.0838 10.5758 13.1186 10.5479 13.1553L10.4717 13.2695C10.3642 13.4533 10.3295 13.6633 10.3037 13.792L10.2793 13.916C10.2056 14.2843 10.1573 14.5261 10.1055 14.71C10.0559 14.8858 10.0146 14.9639 9.97852 15.0137C9.89016 15.1355 9.77154 15.2322 9.63477 15.2949C9.57889 15.3205 9.49434 15.3453 9.3125 15.3594C9.12202 15.3741 8.87562 15.375 8.5 15.375C8.12438 15.375 7.87799 15.3741 7.6875 15.3594C7.50566 15.3453 7.42111 15.3205 7.36523 15.2949C7.22846 15.2322 7.10984 15.1355 7.02148 15.0137C6.98539 14.9639 6.9441 14.8858 6.89453 14.71C6.84269 14.5261 6.79437 14.2843 6.7207 13.916L6.69629 13.792C6.67055 13.6633 6.63579 13.4533 6.52832 13.2695C6.50515 13.23 6.47992 13.1917 6.45215 13.1553L6.36133 13.0508L6.24316 12.9482C6.12034 12.8565 5.98951 12.796 5.90137 12.752L5.57617 12.5898C5.46869 12.5361 5.29792 12.4425 5.10254 12.4121L5.05566 12.4062L4.91016 12.4004C4.76858 12.4048 4.64009 12.4345 4.55176 12.4521L3.94922 12.5732C3.48609 12.6659 3.36878 12.6837 3.27441 12.6777C3.04321 12.6632 2.82726 12.5574 2.67383 12.3838C2.6112 12.3129 2.55306 12.2096 2.3418 11.7871C2.1128 11.3291 2.06072 11.2102 2.04199 11.1113C1.9962 10.8682 2.05545 10.6169 2.20508 10.4199C2.266 10.3398 2.36598 10.257 2.77637 9.94922L3.04199 9.75C3.13969 9.67673 3.3014 9.56399 3.41602 9.40332C3.48384 9.30815 3.53682 9.20218 3.57227 9.09082C3.63201 8.9028 3.62501 8.70611 3.625 8.58398V8.37402C3.62501 8.28222 3.62841 8.13551 3.59473 7.99219C3.56463 7.86441 3.51294 7.74307 3.44141 7.63379L3.36328 7.52832L3.28809 7.44922C3.2111 7.37506 3.13026 7.31669 3.0752 7.27539L3.02832 7.24023C2.5012 6.8449 2.37263 6.73664 2.30371 6.63184C2.16997 6.42821 2.12709 6.17792 2.18555 5.94141C2.21565 5.81967 2.30076 5.67582 2.66602 5.12793C2.94379 4.71126 3.01795 4.6099 3.0957 4.54395C3.24566 4.41693 3.43447 4.34384 3.63086 4.33691C3.73283 4.33334 3.85537 4.35789 4.3418 4.47949L4.55078 4.53223C4.63941 4.55439 4.78076 4.59306 4.92969 4.59473C5.02004 4.5957 5.11026 4.58602 5.19824 4.56543C5.34315 4.5315 5.47202 4.46274 5.55371 4.42188L5.90137 4.24805C6.01878 4.18935 6.21235 4.10121 6.36133 3.94922C6.42576 3.88343 6.48179 3.80995 6.52832 3.73047C6.6358 3.54668 6.66957 3.33574 6.69531 3.20703L6.7207 3.08398C6.79437 2.71567 6.84269 2.47393 6.89453 2.29004C6.9441 2.11423 6.98539 2.0361 7.02148 1.98633C7.10984 1.86452 7.22846 1.76783 7.36523 1.70508C7.42111 1.67948 7.50566 1.65474 7.6875 1.64062C7.87799 1.62585 8.12438 1.625 8.5 1.625Z" stroke="#171A1C" stroke-width="1.25"/>
</svg>
