<svg width="17" height="17" viewBox="0 0 17 17" fill="none" xmlns="http://www.w3.org/2000/svg">
<path fill-rule="evenodd" clip-rule="evenodd" d="M7.54541 0.54059C7.92565 0.549825 8.26299 0.567901 8.56018 0.605959C9.16824 0.68383 9.68359 0.850958 10.1031 1.23993C10.1518 1.28511 10.199 1.33235 10.2442 1.38104C10.597 1.76146 10.7626 2.2216 10.8481 2.75482C11.3858 2.84134 11.8466 3.01119 12.2281 3.36493C12.2768 3.41011 12.324 3.45735 12.3692 3.50604C12.722 3.88646 12.8876 4.3466 12.9731 4.87982C13.5108 4.96641 13.9717 5.1362 14.3531 5.48993C14.4018 5.53515 14.449 5.5823 14.4942 5.63104C14.8833 6.05047 15.0502 6.56586 15.1282 7.17395C15.2044 7.7682 15.2029 8.5227 15.2029 9.46082V11.95C15.2029 12.8881 15.2044 13.6426 15.1282 14.2369C15.0502 14.845 14.8833 15.3604 14.4942 15.7798C14.449 15.8285 14.4018 15.8757 14.3531 15.9209C13.9337 16.3099 13.4182 16.4769 12.8102 16.5549C12.2159 16.6311 11.4614 16.6296 10.5233 16.6296C9.58521 16.6296 8.8307 16.6311 8.23645 16.5549C7.62838 16.4769 7.11297 16.3099 6.69354 15.9209C6.64479 15.8757 6.59766 15.8285 6.55243 15.7798C6.19864 15.3984 6.0289 14.9375 5.94232 14.3998C5.40909 14.3142 4.94894 14.1487 4.56854 13.7959C4.51985 13.7507 4.47261 13.7035 4.42743 13.6548C4.07364 13.2733 3.90382 12.8125 3.81732 12.2748C3.28409 12.1892 2.82394 12.0237 2.44354 11.6709C2.39485 11.6257 2.34761 11.5785 2.30243 11.5298C1.9134 11.1103 1.74632 10.5949 1.66846 9.98688C1.59237 9.3926 1.59375 8.63803 1.59375 7.70001V5.21082C1.59375 4.2728 1.59237 3.51823 1.66846 2.92395C1.74632 2.31588 1.91339 1.80054 2.30243 1.38104C2.34761 1.33234 2.39484 1.28511 2.44354 1.23993C2.86304 0.850893 3.37838 0.683821 3.98645 0.605959C4.58073 0.529865 5.3353 0.531252 6.27332 0.531252L7.54541 0.54059ZM10.5233 5.84375C9.55671 5.84375 8.88242 5.84472 8.37134 5.91016C8.30943 5.91809 8.25105 5.92651 8.19599 5.9361C7.80902 6.00369 7.58366 6.11338 7.41571 6.26917C7.38667 6.29612 7.35862 6.32417 7.33167 6.35321C7.24275 6.44907 7.16914 6.56372 7.10962 6.71637C7.05023 6.86924 7.00452 7.06007 6.97266 7.30884C6.90722 7.81992 6.90625 8.49421 6.90625 9.46082V11.95L6.91351 13.0405C6.91959 13.356 6.93 13.6305 6.95087 13.8727C6.95777 13.9526 6.96331 14.0291 6.97266 14.102C7.03643 14.5989 7.15372 14.8658 7.33167 15.0576C7.35862 15.0867 7.38666 15.1147 7.41571 15.1417C7.60756 15.3196 7.8744 15.4369 8.37134 15.5007C8.88229 15.5662 9.55671 15.5671 10.5233 15.5671C11.49 15.5671 12.1643 15.5662 12.6753 15.5007C13.1723 15.4369 13.4391 15.3196 13.6309 15.1417C13.66 15.1147 13.688 15.0867 13.715 15.0576C13.8929 14.8658 14.0102 14.5989 14.074 14.102C14.1395 13.591 14.1404 12.9166 14.1404 11.95V9.46082C14.1404 8.49421 14.1395 7.81979 14.074 7.30884C14.0102 6.81191 13.8929 6.54505 13.715 6.35321C13.688 6.32417 13.66 6.29612 13.6309 6.26917C13.4391 6.0912 13.1723 5.97393 12.6753 5.91016C12.6024 5.90081 12.5259 5.89527 12.446 5.88837C11.9596 5.84645 11.3438 5.84375 10.5233 5.84375ZM8.39832 3.71875C7.43171 3.71875 6.75742 3.71972 6.24634 3.78516C5.74925 3.84882 5.48249 3.96533 5.29071 4.14313C5.26146 4.17027 5.23277 4.19896 5.20563 4.22821C5.02783 4.41999 4.91132 4.68675 4.84766 5.18384C4.78222 5.69492 4.78125 6.36921 4.78125 7.33582V9.82501L4.78851 10.9155C4.79459 11.231 4.805 11.5055 4.82587 11.7477C4.83281 11.8276 4.83832 11.9041 4.84766 11.977C4.91132 12.4741 5.02784 12.7408 5.20563 12.9326C5.23277 12.9619 5.26146 12.9906 5.29071 13.0177C5.42408 13.1413 5.59427 13.2335 5.85517 13.2999C5.85034 13.1278 5.85042 12.9467 5.84894 12.7562C5.84605 12.5049 5.84375 12.2365 5.84375 11.95V9.46082C5.84375 8.5228 5.84236 7.76823 5.91846 7.17395C5.99632 6.56588 6.16339 6.05054 6.55243 5.63104C6.59761 5.58234 6.64484 5.53511 6.69354 5.48993C7.11304 5.10089 7.62838 4.93382 8.23645 4.85596C8.83073 4.77986 9.5853 4.78125 10.5233 4.78125C10.8272 4.78125 11.1108 4.7831 11.3752 4.78644C11.549 4.78798 11.7149 4.78822 11.8732 4.79267C11.8068 4.53175 11.7147 4.36158 11.591 4.22821C11.5639 4.19896 11.5352 4.17027 11.5059 4.14313C11.3141 3.96537 11.0474 3.84883 10.5503 3.78516C10.4774 3.77582 10.4009 3.77027 10.321 3.76337C9.83458 3.72145 9.2188 3.71875 8.39832 3.71875ZM6.27332 1.59375C5.30671 1.59375 4.63242 1.59472 4.12134 1.66016C3.62425 1.72382 3.35749 1.84033 3.16571 2.01813C3.13646 2.04527 3.10777 2.07396 3.08063 2.10321C2.90283 2.29499 2.78632 2.56175 2.72266 3.05884C2.65722 3.56992 2.65625 4.24421 2.65625 5.21082V7.70001L2.66455 8.94721C2.67297 9.30027 2.68995 9.59656 2.72266 9.85199C2.78632 10.3491 2.90284 10.6158 3.08063 10.8076C3.10777 10.8369 3.13646 10.8656 3.16571 10.8927C3.29925 11.0165 3.46975 11.1085 3.7312 11.1749C3.72723 11.0334 3.72657 10.8858 3.72498 10.7319C3.72103 10.4519 3.71875 10.1501 3.71875 9.82501V7.33582C3.71875 6.3978 3.71737 5.64323 3.79346 5.04895C3.87132 4.44088 4.03839 3.92554 4.42743 3.50604C4.47261 3.45734 4.51984 3.41011 4.56854 3.36493C4.98804 2.97589 5.50338 2.80882 6.11145 2.73096C6.70573 2.65487 7.4603 2.65625 8.39832 2.65625C8.72738 2.65625 9.03266 2.6584 9.31555 2.66248L9.67041 2.66559C9.69656 2.66623 9.72249 2.66798 9.74823 2.6687C9.68178 2.40723 9.58983 2.23675 9.466 2.10321C9.43887 2.07396 9.41018 2.04527 9.38092 2.01813C9.18913 1.84037 8.92236 1.72383 8.42529 1.66016C7.91421 1.59471 7.23989 1.59375 6.27332 1.59375Z" fill="#DEE0E3"/>
</svg>
