<svg width="17" height="17" viewBox="0 0 17 17" fill="none" xmlns="http://www.w3.org/2000/svg">
<path d="M8.4378 8.49997H4.54197M4.482 8.70645L2.8281 13.6469C2.69817 14.035 2.6332 14.229 2.67983 14.3486C2.72031 14.4523 2.80727 14.531 2.91457 14.561C3.03813 14.5955 3.22475 14.5115 3.598 14.3435L15.4353 9.01673C15.7996 8.85279 15.9818 8.77082 16.0381 8.65695C16.087 8.55802 16.087 8.44194 16.0381 8.343C15.9818 8.22913 15.7996 8.14716 15.4353 7.98322L3.59387 2.65461C3.22175 2.48716 3.03569 2.40343 2.91226 2.43778C2.80506 2.46761 2.71811 2.54608 2.67748 2.64967C2.6307 2.76895 2.69497 2.96259 2.82351 3.34987L4.48247 8.34806C4.50454 8.41457 4.51558 8.44783 4.51994 8.48185C4.52381 8.51203 4.52377 8.54259 4.51982 8.57276C4.51538 8.60676 4.50425 8.63999 4.482 8.70645Z" stroke="white" stroke-width="1.25" stroke-linecap="round" stroke-linejoin="round"/>
</svg>
