<svg width="17" height="17" viewBox="0 0 17 17" fill="none" xmlns="http://www.w3.org/2000/svg">
<path d="M7.5 2.5H5.5C3.84315 2.5 2.5 3.84315 2.5 5.5V11.5C2.5 13.1569 3.84315 14.5 5.5 14.5H11.5C13.1569 14.5 14.5 13.1569 14.5 11.5V9.5" stroke="black" stroke-width="1.25" stroke-linecap="round"/>
<path d="M12.9785 3.51562C13.0581 3.75451 13.2455 3.94186 13.4844 4.02148L14.9199 4.5L13.4844 4.97852C13.2752 5.04824 13.1051 5.20026 13.0127 5.39746L12.9785 5.48438L12.5 6.91992L12.0215 5.48438L11.9873 5.39746C11.8949 5.20027 11.7248 5.04824 11.5156 4.97852L10.0801 4.5L11.5156 4.02148C11.7545 3.94186 11.9419 3.75451 12.0215 3.51562L12.5 2.08008L12.9785 3.51562Z" stroke="black"/>
<path d="M7.5 7.06934C7.58102 7.26424 7.7349 7.41877 7.92969 7.5C7.73518 7.58111 7.58111 7.73518 7.5 7.92969C7.41877 7.7349 7.26424 7.58102 7.06934 7.5C7.26452 7.41887 7.41887 7.26452 7.5 7.06934Z" stroke="black"/>
<circle cx="11" cy="11" r="1" fill="black"/>
</svg>
