<svg xmlns="http://www.w3.org/2000/svg" xmlns:xlink="http://www.w3.org/1999/xlink" preserveAspectRatio="xMidYMid meet" width="320" height="320" viewBox="0 0 320 320" style="width:100%;height:100%"><defs><animate repeatCount="indefinite" dur="1.24s" begin="0s" xlink:href="#_R_G_L_2_G_D_0_P_0" fill="freeze" attributeName="stroke-width" from="60" to="60" keyTimes="0;0.0645161;0.3870968;0.6451613;0.9677419;1" values="60;60;20;20;60;60" keySplines="0.3 0 0.1 1;0.3 0 0.1 1;0.3 0 0.1 1;0.3 0 0.1 1;0 0 0 0" calcMode="spline"/><animateTransform repeatCount="indefinite" dur="1.24s" begin="0s" xlink:href="#_R_G_L_2_G_D_0_P_0_G_0_T_0" fill="freeze" attributeName="transform" from="0.34 0.34" to="0.34 0.34" type="scale" additive="sum" keyTimes="0;0.0645161;0.3870968;0.6451613;0.9677419;1" values="0.34 0.34;0.34 0.34;1 1;1 1;0.34 0.34;0.34 0.34" keySplines="0.3 0 0.1 1;0.3 0 0.1 1;0.3 0 0.1 1;0.3 0 0.1 1;0 0 0 0" calcMode="spline"/><animate repeatCount="indefinite" dur="1.24s" begin="0s" xlink:href="#_R_G_L_1_G_D_0_P_0" fill="freeze" attributeName="stroke-width" from="20" to="20" keyTimes="0;0.2580645;0.3870968;0.7096774;1" values="20;60;60;20;20" keySplines="0.3 0 0.1 1;0.3 0 0.1 1;0.3 0 0.1 1;0 0 0 0" calcMode="spline"/><animateTransform repeatCount="indefinite" dur="1.24s" begin="0s" xlink:href="#_R_G_L_1_G_D_0_P_0_G_0_T_0" fill="freeze" attributeName="transform" from="1 1" to="1 1" type="scale" additive="sum" keyTimes="0;0.2580645;0.3870968;0.7096774;1" values="1 1;0.34 0.34;0.34 0.34;1 1;1 1" keySplines="0.3 0 0.1 1;0.3 0 0.1 1;0.3 0 0.1 1;0 0 0 0" calcMode="spline"/><animate repeatCount="indefinite" dur="1.24s" begin="0s" xlink:href="#_R_G_L_0_G_D_0_P_0" fill="freeze" attributeName="stroke-width" from="20" to="20.762" keyTimes="0;0.3225806;0.5806452;0.7096774;0.9677419;1" values="20;20;60;60;20.762;20.762" keySplines="0.3 0 0.1 1;0.3 0 0.1 1;0.3 0 0.1 1;0.344 0 0.162 0.859;0 0 0 0" calcMode="spline"/><animateTransform repeatCount="indefinite" dur="1.24s" begin="0s" xlink:href="#_R_G_L_0_G_D_0_P_0_G_0_T_0" fill="freeze" attributeName="transform" from="1 1" to="0.9874299999999999 0.9874299999999999" type="scale" additive="sum" keyTimes="0;0.3225806;0.5806452;0.7096774;0.9677419;1" values="1 1;1 1;0.34 0.34;0.34 0.34;0.9874299999999999 0.9874299999999999;0.9874299999999999 0.9874299999999999" keySplines="0.3 0 0.1 1;0.3 0 0.1 1;0.3 0 0.1 1;0.344 0 0.162 0.859;0 0 0 0" calcMode="spline"/><animate attributeType="XML" attributeName="opacity" dur="1s" from="0" to="1" xlink:href="#time_group"/></defs><g id="_R_G"><g id="_R_G_L_3_G" transform=" translate(131.062, 160) translate(0, 0)"><path id="_R_G_L_3_G_D_0_P_0" fill="#2a2e32" fill-opacity="1" fill-rule="nonzero" d=" M94.85 38.33 C94.85,38.33 97.31,35.47 97.31,35.47 C100.69,31.1 107.05,29.95 111.66,32.99 C116.27,36.04 117.4,42.14 114.03,46.52 C114.03,46.52 110.3,51.03 110.3,51.03 C106.8,55.29 104.42,59.65 103.46,64.05 C103.1,65.75 102.91,67.47 102.91,69.2 C102.91,69.2 102.91,118.08 102.91,118.08 C102.91,123.6 98.43,128.08 92.91,128.08 C87.39,128.08 82.91,123.6 82.91,118.08 C82.91,118.08 82.91,69.2 82.91,69.2 C82.91,66.04 83.25,62.89 83.92,59.8 C85.75,51.39 90.02,44.21 94.85,38.33z "/><path id="_R_G_L_3_G_D_0_P_1" fill="#2a2e32" fill-opacity="1" fill-rule="nonzero" d=" M61.97 -127.42 C61.85,-121.33 56.24,-116.87 50.18,-117.51 C6.4,-122.19 -24.14,-101.72 -41.07,-84.78 C-41.07,-84.78 -41.19,-84.66 -41.19,-84.66 C-41.19,-84.66 -41.28,-84.58 -41.28,-84.58 C-41.28,-84.58 -41.41,-84.45 -41.41,-84.45 C-41.53,-84.33 -41.75,-84.11 -42.05,-83.8 C-42.64,-83.18 -43.54,-82.19 -44.66,-80.84 C-46.9,-78.14 -50,-74.02 -53.2,-68.53 C-59.61,-57.56 -66.42,-41.18 -67.79,-19.7 C-68.16,-13.88 -69.92,-5.83 -70.34,-3.95 C-70.57,-2.92 -70.9,-1.96 -71.3,-1.07 C-71.3,-1.07 -95.27,52.87 -95.27,52.87 C-95.27,52.87 -83.26,54.88 -83.26,54.88 C-75.73,56.13 -70.22,62.64 -70.22,70.27 C-70.22,70.27 -70.22,105.65 -70.22,105.65 C-70.22,112.51 -64.66,118.07 -57.79,118.07 C-57.79,118.07 -20.12,118.07 -20.12,118.07 C-5.36,118.07 7.12,108.37 11.31,95 C12.96,89.72 17.29,85.15 22.81,85.15 C28.33,85.15 32.91,89.66 31.88,95.09 C27.22,119.57 5.71,138.07 -20.12,138.07 C-20.12,138.07 -57.79,138.07 -57.79,138.07 C-75.7,138.07 -90.22,123.56 -90.22,105.65 C-90.22,105.65 -90.22,73.99 -90.22,73.99 C-90.22,73.99 -100.59,72.26 -100.59,72.26 C-112.46,70.29 -119.27,57.63 -114.38,46.63 C-114.38,46.63 -89.76,-8.77 -89.76,-8.77 C-89.22,-11.24 -87.99,-17.22 -87.75,-20.97 C-86.14,-46.1 -78.14,-65.48 -70.48,-78.61 C-66.64,-85.18 -62.89,-90.2 -60.04,-93.62 C-58.62,-95.34 -57.41,-96.66 -56.54,-97.59 C-56.1,-98.05 -55.74,-98.41 -55.47,-98.67 C-55.47,-98.67 -55.14,-98.99 -55.14,-98.99 C-55.14,-98.99 -55.12,-99.01 -55.12,-99.01 C-33.87,-120.22 3,-143.37 53.91,-137 C58.66,-136.4 62.06,-132.21 61.97,-127.42z "/></g><g id="_R_G_L_2_G" transform=" translate(274.92, 63.993) translate(0, 0)"><g id="_R_G_L_2_G_D_0_P_0_G_0_T_0" transform=" translate(0, 0)"><g id="_R_G_L_2_G_D_0_P_0_G_1_T_0"><path id="_R_G_L_2_G_D_0_P_0" stroke="#2a2e32" stroke-linecap="round" stroke-linejoin="round" fill="none" stroke-width="60" stroke-opacity="1" d=" M-30 -20 C-30,-25.52 -25.52,-30 -20,-30 C-20,-30 20,-30 20,-30 C25.52,-30 30,-25.52 30,-20 C30,-20 30,20 30,20 C30,25.52 25.52,30 20,30 C20,30 -20,30 -20,30 C-25.52,30 -30,25.52 -30,20 C-30,20 -30,-20 -30,-20z "/></g></g></g><g id="_R_G_L_1_G" transform=" translate(264.92, 143.993) translate(0, 0)"><g id="_R_G_L_1_G_D_0_P_0_G_0_T_0" transform=" translate(0, 0)"><g id="_R_G_L_1_G_D_0_P_0_G_1_T_0"><path id="_R_G_L_1_G_D_0_P_0" stroke="#2a2e32" stroke-linecap="round" stroke-linejoin="round" fill="none" stroke-width="20" stroke-opacity="1" d=" M-30 -20 C-30,-25.52 -25.52,-30 -20,-30 C-20,-30 20,-30 20,-30 C25.52,-30 30,-25.52 30,-20 C30,-20 30,20 30,20 C30,25.52 25.52,30 20,30 C20,30 -20,30 -20,30 C-25.52,30 -30,25.52 -30,20 C-30,20 -30,-20 -30,-20z "/></g></g></g><g id="_R_G_L_0_G" transform=" translate(183.155, 123.952) translate(0, 0)"><g id="_R_G_L_0_G_D_0_P_0_G_0_T_0" transform=" translate(0, 0)"><g id="_R_G_L_0_G_D_0_P_0_G_1_T_0"><path id="_R_G_L_0_G_D_0_P_0" stroke="#2a2e32" stroke-linecap="round" stroke-linejoin="round" fill="none" stroke-width="20" stroke-opacity="1" d=" M-30 -20 C-30,-25.52 -25.52,-30 -20,-30 C-20,-30 20,-30 20,-30 C25.52,-30 30,-25.52 30,-20 C30,-20 30,20 30,20 C30,25.52 25.52,30 20,30 C20,30 -20,30 -20,30 C-25.52,30 -30,25.52 -30,20 C-30,20 -30,-20 -30,-20z "/></g></g></g></g><g id="time_group"/></svg>