<svg width="48" height="48" viewBox="0 0 48 48" fill="none" xmlns="http://www.w3.org/2000/svg">
<path d="M21.7666 42.7998L22.6324 43.3001L22.6325 43.3L21.7666 42.7998ZM19.1689 42.7998L18.303 43.2999L18.303 43.3L19.1689 42.7998ZM16.6161 38.3795L15.7501 38.8796L16.6161 38.3795ZM24.3204 38.3792L23.4545 37.879L24.3204 38.3792ZM35.998 7.61035V8.61035C38.7597 8.61035 40.999 10.8491 40.999 13.6104H41.999H42.999C42.999 9.74415 39.8638 6.61035 35.998 6.61035V7.61035ZM41.999 13.6104H40.999V30.8799H41.999H42.999V13.6104H41.999ZM41.999 30.8799H40.999C40.999 33.6411 38.7597 35.8799 35.998 35.8799V36.8799V37.8799C39.8638 37.8799 42.999 34.7461 42.999 30.8799H41.999ZM35.998 36.8799V35.8799H26.9181V36.8799V37.8799H35.998V36.8799ZM24.3204 38.3792L23.4545 37.879L20.9007 42.2996L21.7666 42.7998L22.6325 43.3L25.1863 38.8794L24.3204 38.3792ZM21.7666 42.7998L20.9008 42.2995C20.7081 42.6328 20.2272 42.6326 20.0349 42.2996L19.1689 42.7998L18.303 43.3C19.2655 44.9661 21.6701 44.9656 22.6324 43.3001L21.7666 42.7998ZM19.1689 42.7998L20.0349 42.2997L17.4821 37.8794L16.6161 38.3795L15.7501 38.8796L18.303 43.2999L19.1689 42.7998ZM14.0182 36.8799V35.8799H11.999V36.8799V37.8799H14.0182V36.8799ZM11.999 36.8799V35.8799C9.2376 35.8799 6.99902 33.6413 6.99902 30.8799H5.99902H4.99902C4.99902 34.7459 8.13303 37.8799 11.999 37.8799V36.8799ZM5.99902 30.8799H6.99902V13.6104H5.99902H4.99902V30.8799H5.99902ZM5.99902 13.6104H6.99902C6.99902 10.8489 9.2376 8.61035 11.999 8.61035V7.61035V6.61035C8.13303 6.61035 4.99902 9.74436 4.99902 13.6104H5.99902ZM11.999 7.61035V8.61035H35.998V7.61035V6.61035H11.999V7.61035ZM16.6161 38.3795L17.4821 37.8794C16.7674 36.6421 15.4471 35.8799 14.0182 35.8799V36.8799V37.8799C14.7327 37.8799 15.3928 38.261 15.7501 38.8796L16.6161 38.3795ZM26.9181 36.8799V35.8799C25.4894 35.8799 24.1691 36.6419 23.4545 37.879L24.3204 38.3792L25.1863 38.8794C25.5436 38.2609 26.2037 37.8799 26.9181 37.8799V36.8799Z" fill="#2A2E32"/>
<path d="M42 21H45" stroke="#2A2E32" stroke-width="2" stroke-linecap="round" stroke-linejoin="round"/>
<path d="M3 21H6" stroke="#2A2E32" stroke-width="2" stroke-linecap="round" stroke-linejoin="round"/>
<path d="M30 21V24" stroke="#2A2E32" stroke-width="2" stroke-linecap="round" stroke-linejoin="round"/>
<path d="M18 21V24" stroke="#2A2E32" stroke-width="2" stroke-linecap="round" stroke-linejoin="round"/>
<path d="M24 6V3H18" stroke="#2A2E32" stroke-width="2" stroke-linecap="round" stroke-linejoin="round"/>
</svg>
