<svg xmlns="http://www.w3.org/2000/svg" xmlns:xlink="http://www.w3.org/1999/xlink" preserveAspectRatio="xMidYMid meet" width="320" height="320" viewBox="0 0 320 320" style="width:100%;height:100%"><defs><animateMotion repeatCount="indefinite" dur="3.44s" begin="0s" xlink:href="#_R_G_L_0_G" fill="freeze" keyTimes="0;0.2573023;0.6395349;0.9302326;1" path="M169.56 173.97 C169.56,173.97 203,153.88 203,153.88 C203,153.88 132,177.88 132,177.88 C132,177.88 169.56,173.97 169.56,173.97 C169.56,173.97 169.56,173.97 169.56,173.97 " keyPoints="0;0.26;0.75;1;1" keySplines="0.5 0 0 1;0.5 0 0 1;0.5 0 0 1;0 0 0 0" calcMode="spline"/><animateTransform repeatCount="indefinite" dur="3.44s" begin="0s" xlink:href="#_R_G_L_0_G" fill="freeze" attributeName="transform" from="0" to="0" type="rotate" additive="sum" keyTimes="0;0.2573023;0.6395349;0.9302326;1" values="0;7.7;-9.1;0;0" keySplines="0.5 0 0 1;0.5 0 0 1;0.5 0 0 1;0 0 0 0" calcMode="spline"/><animateTransform repeatCount="indefinite" dur="3.44s" begin="0s" xlink:href="#_R_G_L_0_G" fill="freeze" attributeName="transform" from="0 0" to="0 0" type="translate" additive="sum" keyTimes="0;0.1860465;0.2180233;0.25;0.2819767;0.3139535;0.5726744;0.6046512;0.6366279;1" values="0 0;0 0;0 13.5;0 0;0 13.5;0 0;0 0;0 13.5;0 0;0 0" keySplines="0.333 0 0.667 1;0.333 0 0.667 1;0.333 0 0.667 1;0.333 0 0.667 1;0.333 0 0.667 1;0.167 0.167 0.667 0.667;0.333 0 0.667 1;0.333 0 0.667 1;0 0 0 0" calcMode="spline"/><animate attributeType="XML" attributeName="opacity" dur="3s" from="0" to="1" xlink:href="#time_group"/></defs><g id="_R_G"><g id="_R_G_L_0_G"><path id="_R_G_L_0_G_D_0_P_0" stroke="#2a2e32" stroke-linecap="round" stroke-linejoin="round" fill="none" stroke-width="17.308" stroke-opacity="1" d=" M-72.93 -60.62 C-72.93,-60.62 32.84,-79.27 32.84,-79.27 C49.08,-82.13 65.36,-74.45 73.49,-60.11 C73.49,-60.11 74.99,-57.45 74.99,-57.45 C90.19,-30.63 101.7,-1.87 109.19,28.03 C112.15,39.85 104.26,51.93 92.07,54.09 C84.66,55.39 77.03,52.75 72.09,47.19 C72.09,47.19 43.45,14.91 43.45,14.91 C33.48,3.66 18.37,-1.61 3.57,1 C3.57,1 -17.97,4.8 -17.97,4.8 C-32.78,7.41 -45.17,17.53 -50.7,31.51 C-50.7,31.51 -66.55,71.63 -66.55,71.63 C-69.29,78.55 -75.57,83.64 -82.98,84.95 C-95.18,87.1 -106.71,78.45 -107.98,66.32 C-111.17,35.66 -110.19,4.7 -105.08,-25.7 C-105.08,-25.7 -104.58,-28.71 -104.58,-28.71 C-101.85,-44.97 -89.17,-57.75 -72.93,-60.62z "/><path id="_R_G_L_0_G_D_1_P_0" stroke="#2a2e32" stroke-linecap="round" stroke-linejoin="round" fill="none" stroke-width="17.308" stroke-opacity="1" d=" M-73.77 -66.71 C-73.77,-66.71 -51.91,-70.56 -51.91,-70.56 "/><path id="_R_G_L_0_G_D_2_P_0" stroke="#2a2e32" stroke-linecap="round" stroke-linejoin="round" fill="none" stroke-width="17.308" stroke-opacity="1" d=" M9.69 -81.43 C9.69,-81.43 31.54,-85.28 31.54,-85.28 "/></g></g><g id="time_group"/></svg>