<svg width="17" height="17" viewBox="0 0 17 17" fill="none" xmlns="http://www.w3.org/2000/svg">
<rect x="1.625" y="6.625" width="2.75" height="7.75" rx="1.375" stroke="black" stroke-width="1.25"/>
<path d="M5.61322 14.5H10.7528C12.4079 14.5 13.892 13.4807 14.4862 11.9359L15.0951 10.3526C15.6183 8.99238 15.0882 7.45296 13.8386 6.70317L13.7375 6.64251C13.5821 6.54926 13.4042 6.5 13.223 6.5H10.1937C9.85243 6.5 9.61145 6.16565 9.71936 5.84189L10.4117 3.76491C10.4702 3.58945 10.5 3.40571 10.5 3.22077V2.76795C10.5 2.06768 9.93229 1.5 9.23202 1.5C8.77903 1.5 8.36044 1.74167 8.13395 2.13397L5.61322 6.5" stroke="black" stroke-width="1.25" stroke-linecap="round"/>
</svg>
