<svg width="17" height="17" viewBox="0 0 17 17" fill="none" xmlns="http://www.w3.org/2000/svg">
<path d="M6.30942 13.5762L3.66645 14.6334C2.85013 14.9599 2.04005 14.1499 2.36658 13.3336L3.42377 10.6906C3.47407 10.5648 3.54938 10.4506 3.64514 10.3549L11.7929 2.20711C12.1834 1.81658 12.8166 1.81658 13.2071 2.20711L14.7929 3.7929C15.1834 4.18342 15.1834 4.81658 14.7929 5.20711L6.64514 13.3549C6.54938 13.4506 6.43516 13.5259 6.30942 13.5762Z" stroke="black" stroke-width="1.25" stroke-linecap="round"/>
<path d="M10.5 3.5L13.5 6.5" stroke="black" stroke-width="1.25" stroke-linecap="round"/>
<circle cx="10" cy="14" r="1" fill="black"/>
<path d="M14.0078 10.6338C14.0852 10.7886 14.2114 10.9148 14.3662 10.9922L15.3818 11.5L14.3662 12.0078C14.2501 12.0659 14.1504 12.1516 14.0752 12.2559L14.0078 12.3662L13.5 13.3818L12.9922 12.3662L12.9248 12.2559C12.8496 12.1516 12.7499 12.0659 12.6338 12.0078L11.6182 11.5L12.6338 10.9922C12.7886 10.9148 12.9148 10.7886 12.9922 10.6338L13.5 9.61816L14.0078 10.6338Z" stroke="black"/>
<path d="M3.5 4.06934C3.58102 4.26424 3.7349 4.41877 3.92969 4.5C3.73518 4.58111 3.58111 4.73518 3.5 4.92969C3.41877 4.7349 3.26424 4.58102 3.06934 4.5C3.26452 4.41887 3.41887 4.26452 3.5 4.06934Z" stroke="black"/>
</svg>
