<svg width="17" height="17" viewBox="0 0 17 17" fill="none" xmlns="http://www.w3.org/2000/svg">
<path d="M13.5 11.5V12C13.5 12.8284 12.8284 13.5 12 13.5H11.5C10.9477 13.5 10.5 13.0523 10.5 12.5C10.5 11.9477 10.9477 11.5 11.5 11.5H13.5ZM13.5 11.5V4.5M6.5 12.5V13C6.5 13.8284 5.82843 14.5 5 14.5H4.5C3.94772 14.5 3.5 14.0523 3.5 13.5C3.5 12.9477 3.94772 12.5 4.5 12.5H6.5ZM6.5 12.5V7.5M6.5 7.5V6.1594C6.5 5.75937 6.7384 5.39783 7.10608 5.24025L12.1061 3.09739C12.7659 2.81459 13.5 3.29862 13.5 4.01654V4.5M6.5 7.5L13.5 4.5" stroke="black" stroke-width="1.25" stroke-linecap="round"/>
</svg>
