<svg xmlns="http://www.w3.org/2000/svg" xmlns:xlink="http://www.w3.org/1999/xlink" preserveAspectRatio="xMidYMid meet" width="320" height="320" viewBox="0 0 320 320" style="width:100%;height:100%"><defs><animateMotion repeatCount="indefinite" dur="3.24s" begin="0s" xlink:href="#_R_G_L_1_G" fill="freeze" keyTimes="0;0.1234568;0.3703704;0.617284;0.7407407;0.8641975;0.9876543;1" path="M160 160 C160,160 160,160 160,160 C160,160 160,160 160,160 C160,160 160,160 160,160 C160,160 160,185 160,185 C160,185 160,185 160,185 C160,185 160,160 160,160 C160,160 160,160 160,160 " keyPoints="0;0;0;0;0.5;0.5;1;1" keySplines="0.5 0.5 0 0;0.5 0.5 0 0;0.5 0.5 0 0;0.5 0 0 1;0.5 0.5 0 0;0.5 0 0 1;0 0 0 0" calcMode="spline"/><animateTransform repeatCount="indefinite" dur="3.24s" begin="0s" xlink:href="#_R_G_L_1_G" fill="freeze" attributeName="transform" from="0" to="360" type="rotate" additive="sum" keyTimes="0;0.1234568;0.3703704;0.4938272;0.617284;0.7407407;0.8641975;0.9876543;1" values="0;0;0;45;45;180;180;360;360" keySplines="0.5 0 0 1;0.5 0 0 1;0.5 0 0 1;0.5 0 0 1;0.5 0 0 1;0.5 0 0 1;0.5 0 0 1;0 0 0 0" calcMode="spline"/><animateTransform repeatCount="indefinite" dur="3.24s" begin="0s" xlink:href="#_R_G_L_1_G" fill="freeze" attributeName="transform" from="12.51587 12.51587" to="12.51587 12.51587" type="scale" additive="sum" keyTimes="0;1" values="12.51587 12.51587;12.51587 12.51587" keySplines="0 0 1 1" calcMode="spline"/><animateMotion repeatCount="indefinite" dur="3.24s" begin="0s" xlink:href="#_R_G_L_0_G" fill="freeze" keyTimes="0;0.1234568;0.3703704;0.617284;0.7407407;0.8641975;0.9876543;1" path="M160 160 C160,160 160,160 160,160 C160,160 160,160 160,160 C160,160 160,160 160,160 C160,160 160,135 160,135 C160,135 160,135 160,135 C160,135 160,160 160,160 C160,160 160,160 160,160 " keyPoints="0;0;0;0;0.5;0.5;1;1" keySplines="0.5 0.5 0 0;0.5 0.5 0 0;0.5 0.5 0 0;0.5 0 0 1;0.5 0.5 0 0;0.5 0 0 1;0 0 0 0" calcMode="spline"/><animateTransform repeatCount="indefinite" dur="3.24s" begin="0s" xlink:href="#_R_G_L_0_G" fill="freeze" attributeName="transform" from="0" to="360" type="rotate" additive="sum" keyTimes="0;0.1234568;0.2469136;0.3703704;0.4938272;0.617284;0.7407407;0.8641975;0.9876543;1" values="0;0;90;90;225;225;270;270;360;360" keySplines="0.5 0 0 1;0.5 0 0 1;0.5 0 0 1;0.5 0 0 1;0.5 0 0 1;0.5 0 0 1;0.5 0 0 1;0.5 0 0 1;0 0 0 0" calcMode="spline"/><animateTransform repeatCount="indefinite" dur="3.24s" begin="0s" xlink:href="#_R_G_L_0_G" fill="freeze" attributeName="transform" from="12.51587 12.51587" to="12.51587 12.51587" type="scale" additive="sum" keyTimes="0;1" values="12.51587 12.51587;12.51587 12.51587" keySplines="0 0 1 1" calcMode="spline"/><animate attributeType="XML" attributeName="opacity" dur="3s" from="0" to="1" xlink:href="#time_group"/></defs><g id="_R_G"><g id="_R_G_L_2_G" transform=" translate(160, 160) scale(12.51587, 12.51587) translate(0, 0)"><path id="_R_G_L_2_G_D_0_P_0" stroke="#2a2e32" stroke-linecap="round" stroke-linejoin="round" fill="none" stroke-width="2" stroke-opacity="1" d=" M-7 -11 C-7,-11 7,-11 7,-11 C8.89,-11 9.83,-11 10.41,-10.41 C11,-9.83 11,-8.89 11,-7 C11,-7 11,7 11,7 C11,8.89 11,9.83 10.41,10.41 C9.83,11 8.89,11 7,11 C7,11 -7,11 -7,11 C-8.89,11 -9.83,11 -10.41,10.41 C-11,9.83 -11,8.89 -11,7 C-11,7 -11,-7 -11,-7 C-11,-8.89 -11,-9.83 -10.41,-10.41 C-9.83,-11 -8.89,-11 -7,-11z "/></g><g id="_R_G_L_1_G"><path id="_R_G_L_1_G_D_0_P_0" fill="#2a2e32" fill-opacity="1" fill-rule="nonzero" d=" M-4 0 C-4,-0.55 -3.55,-1 -3,-1 C-3,-1 3,-1 3,-1 C3.55,-1 4,-0.55 4,0 C4,0.55 3.55,1 3,1 C3,1 -3,1 -3,1 C-3.55,1 -4,0.55 -4,0z "/></g><g id="_R_G_L_0_G"><path id="_R_G_L_0_G_D_0_P_0" fill="#2a2e32" fill-opacity="1" fill-rule="nonzero" d=" M0 -4 C0.55,-4 1,-3.55 1,-3 C1,-3 1,3 1,3 C1,3.55 0.55,4 0,4 C-0.55,4 -1,3.55 -1,3 C-1,3 -1,-3 -1,-3 C-1,-3.55 -0.55,-4 0,-4z "/></g></g><g id="time_group"/></svg>