<svg width="16" height="16" viewBox="0 0 16 16" fill="none" xmlns="http://www.w3.org/2000/svg">
<path d="M12 2.53711L12.0001 2.03711H12V2.53711ZM14 10.2939L14.5 10.294V10.2939H14ZM12 12.2939V12.7939H12.0001L12 12.2939ZM7.25586 14.2666L7.68883 14.5167L7.6889 14.5166L7.25586 14.2666ZM6.38965 14.2666L5.95661 14.5166L5.95668 14.5167L6.38965 14.2666ZM2 10.2939H1.5V10.294L2 10.2939ZM5.53964 12.794L5.1066 13.044L5.53964 12.794ZM8.10587 12.794L8.53891 13.044L8.10587 12.794ZM12 2.53711L11.9999 3.03711C12.8283 3.0373 13.5 3.70895 13.5 4.53711H14H14.5C14.5 3.15644 13.3804 2.03742 12.0001 2.03711L12 2.53711ZM14 4.53711H13.5V10.2939H14H14.5V4.53711H14ZM14 10.2939L13.5 10.2938C13.4998 11.122 12.8281 11.7938 11.9999 11.7939L12 12.2939L12.0001 12.7939C13.3804 12.7936 14.4997 11.6743 14.5 10.294L14 10.2939ZM12 12.2939V11.7939H8.97194V12.2939V12.7939H12V12.2939ZM8.10587 12.794L7.67284 12.5441L6.82282 14.0166L7.25586 14.2666L7.6889 14.5166L8.53891 13.044L8.10587 12.794ZM7.25586 14.2666L6.82289 14.0165H6.82262L6.38965 14.2666L5.95668 14.5167C6.34162 15.1831 7.30389 15.1831 7.68883 14.5167L7.25586 14.2666ZM6.38965 14.2666L6.82268 14.0166L5.97267 12.5441L5.53964 12.794L5.1066 13.044L5.95661 14.5166L6.38965 14.2666ZM4.67357 12.2939V11.7939H4V12.2939V12.7939H4.67357V12.2939ZM4 12.2939V11.7939C3.17181 11.7939 2.50017 11.1223 2.5 10.2938L2 10.2939L1.5 10.294C1.50028 11.6744 2.61933 12.7939 4 12.7939V12.2939ZM2 10.2939H2.5V4.53711H2H1.5V10.2939H2ZM2 4.53711H2.5C2.5 3.70868 3.17157 3.03711 4 3.03711V2.53711V2.03711C2.61929 2.03711 1.5 3.1564 1.5 4.53711H2ZM4 2.53711V3.03711H12V2.53711V2.03711H4V2.53711ZM5.53964 12.794L5.97267 12.5441C5.70474 12.0799 5.20951 11.7939 4.67357 11.7939V12.2939V12.7939C4.85221 12.7939 5.01729 12.8893 5.1066 13.044L5.53964 12.794ZM8.97194 12.2939V11.7939C8.436 11.7939 7.94077 12.0799 7.67284 12.5441L8.10587 12.794L8.53891 13.044C8.62822 12.8893 8.79329 12.7939 8.97194 12.7939V12.2939Z" fill="#2A2E32"/>
<path d="M14 7H15" stroke="#2A2E32" stroke-linecap="round" stroke-linejoin="round"/>
<path d="M1 7H2" stroke="#2A2E32" stroke-linecap="round" stroke-linejoin="round"/>
<path d="M10 7V8" stroke="#2A2E32" stroke-linecap="round" stroke-linejoin="round"/>
<path d="M6 7V8" stroke="#2A2E32" stroke-linecap="round" stroke-linejoin="round"/>
<path d="M8 2V1H6" stroke="#2A2E32" stroke-linecap="round" stroke-linejoin="round"/>
</svg>
