<svg width="17" height="17" viewBox="0 0 17 17" fill="none" xmlns="http://www.w3.org/2000/svg">
<path d="M14 10.375C13.2406 10.375 12.625 9.75939 12.625 9V4C12.625 3.24061 13.2406 2.625 14 2.625C14.7594 2.625 15.375 3.24061 15.375 4V9C15.375 9.75939 14.7594 10.375 14 10.375Z" stroke="black" stroke-width="1.25"/>
<path d="M11.5 2.5H6.2472C4.59211 2.5 3.10796 3.51932 2.51381 5.06408L1.90484 6.64742C1.38169 8.00762 1.91173 9.54704 3.16139 10.2968L3.26249 10.3575C3.4179 10.4507 3.59574 10.5 3.77698 10.5H6.80629C7.14757 10.5 7.38855 10.8343 7.28063 11.1581L6.5883 13.2351C6.52982 13.4105 6.5 13.5943 6.5 13.7792V14.223C6.5 14.9283 7.07173 15.5 7.77698 15.5C8.22554 15.5 8.64121 15.2647 8.87199 14.88L11.5 10.5" stroke="black" stroke-width="1.25" stroke-linecap="round"/>
</svg>
