<svg xmlns="http://www.w3.org/2000/svg" width="20" height="20" viewBox="0 0 20 20" fill="none">
    <path d="M8.80859 3.0293C9.21799 1.92337 10.782 1.92337 11.1914 3.0293L12.709 7.13086C12.7364 7.20491 12.7951 7.26361 12.8691 7.29102L16.9707 8.80859C18.0766 9.21799 18.0766 10.782 16.9707 11.1914L12.8691 12.709C12.7951 12.7364 12.7364 12.7951 12.709 12.8691L11.1914 16.9707C10.782 18.0766 9.21799 18.0766 8.80859 16.9707L7.29102 12.8691C7.26361 12.7951 7.20491 12.7364 7.13086 12.709L3.0293 11.1914C1.92337 10.782 1.92337 9.21799 3.0293 8.80859L7.13086 7.29102C7.20491 7.26361 7.26361 7.20491 7.29102 7.13086L8.80859 3.0293Z" stroke="#2A343C"/>
    <path d="M16.3984 1.33496C16.6196 0.942617 17.2243 0.970534 17.3906 1.41895L17.7119 2.28711L18.5811 2.60938C19.0594 2.78674 19.0594 3.46326 18.5811 3.64062L17.7119 3.96191L17.3906 4.83105C17.2133 5.30937 16.5367 5.30937 16.3594 4.83105L16.0371 3.96191L15.1689 3.64062C14.6906 3.46326 14.6906 2.78674 15.1689 2.60938L16.0371 2.28711L16.3594 1.41895L16.3984 1.33496Z" stroke="#2A343C" stroke-width="0.85"/>
</svg>