<svg width="17" height="17" viewBox="0 0 17 17" fill="none" xmlns="http://www.w3.org/2000/svg">
<path d="M15.5 8.5C15.5 4.5 12.5 1.5 8.5 1.5C4.5 1.5 1.5 4.5 1.5 8.5C1.5 11.2061 2.8731 13.4546 5 14.626" stroke="black" stroke-width="1.25" stroke-linecap="round" stroke-linejoin="round"/>
<path d="M15.5 15.5L11.5 7.5L7.5 15.5" stroke="black" stroke-width="1.25" stroke-linecap="round" stroke-linejoin="round"/>
<path d="M9 12.5L14 12.5" stroke="black" stroke-width="1.25" stroke-linecap="round" stroke-linejoin="round"/>
<path d="M10.5159 3.94814C10.1767 3.137 10.8565 2.76878 11.3767 2.52471C11.7249 2.36137 11.6602 2.0872 11.2833 2.01071C9.65106 1.67942 6.95557 1.96955 5.69175 2.25188C5.30064 2.33925 5.32493 2.60973 5.70461 2.73795C5.98361 2.83216 5.97485 3.06538 6.0225 3.35598C6.04356 3.48435 6.17986 3.64717 6.5924 3.89942C6.88344 4.07738 8.07119 4.72607 7.69448 5.00752C7.22423 5.35886 7.22423 5.00752 6.28375 5.00752C5.34327 5.00752 6.28375 5.47776 5.34327 5.948C4.40279 6.41825 4.87303 6.88849 5.34327 7.82897C5.81351 8.76945 6.28375 10.6504 7.22423 10.6504C8.16472 10.6504 7.69448 9.70994 8.16472 8.76945C8.63496 7.82897 9.1052 8.29921 9.57544 7.35873C9.79166 6.9263 9.70756 6.57671 9.53741 6.32783C9.33636 6.03376 9.1502 5.71035 9.42568 5.48449C9.92598 5.07429 10.8068 4.64366 10.5159 3.94814Z" fill="black"/>
<path d="M5.12869 11.4908C4.69731 11.0931 4.64284 10.8364 4.70933 10.65C4.83858 10.2878 4.76444 10.1278 4.38276 10.1748C3.5717 10.2749 2.98062 10.4712 2.59657 10.6393C2.25142 10.7903 2.10259 11.1784 2.28112 11.5102C2.67536 12.2429 3.40402 12.9186 3.95517 13.3625C4.34737 13.6785 4.91457 13.5725 5.12241 13.1137C5.3684 12.5708 5.54878 11.8781 5.12869 11.4908Z" fill="black"/>
</svg>
