<svg width="129" height="128" viewBox="0 0 129 128" fill="none" xmlns="http://www.w3.org/2000/svg">
<g clip-path="url(#clip0_522_451)">
<path d="M100.043 24C106.67 24 112.043 18.6274 112.043 12C112.043 5.37259 106.67 0 100.043 0C93.4155 0 88.043 5.37259 88.043 12C88.043 18.6274 93.4155 24 100.043 24Z" fill="black"/>
<path d="M12.0429 56C18.6704 56 24.043 50.6274 24.043 44C24.043 37.3726 18.6704 32 12.0429 32C5.41553 32 0.0429688 37.3726 0.0429688 44C0.0429688 50.6274 5.41553 56 12.0429 56Z" fill="black"/>
<path d="M84.0429 128C90.6704 128 96.043 122.627 96.043 116C96.043 109.373 90.6704 104 84.0429 104C77.4155 104 72.043 109.373 72.043 116C72.043 122.627 77.4155 128 84.0429 128Z" fill="black"/>
<circle cx="64.043" cy="64" r="24" fill="black"/>
</g>
<defs>
<clipPath id="clip0_522_451">
<rect width="128" height="128" fill="white" transform="translate(0.0429688)"/>
</clipPath>
</defs>
</svg>
