<svg width="17" height="17" viewBox="0 0 17 17" fill="none" xmlns="http://www.w3.org/2000/svg">
<path fill-rule="evenodd" clip-rule="evenodd" d="M5.07987 2.23548L4.94248 2.26119L4.93543 2.26251C3.08226 2.60998 2.15449 2.78394 1.68733 3.46872C1.21956 4.15449 1.39655 5.08382 1.75031 6.94101L2.25378 9.58196L2.49537 10.8021C2.7253 11.8628 2.95208 12.4701 3.46424 12.8194L3.59593 12.8992C4.14575 13.1969 4.86333 13.1348 6.05767 12.924L6.05767 11.6538C5.45277 11.764 5.02768 11.8313 4.69041 11.8488C4.2897 11.8696 4.19754 11.8064 4.17012 11.7875L4.16896 11.7868L4.1677 11.7859C4.14036 11.7673 4.0477 11.7044 3.92056 11.3229C3.77998 10.901 3.66405 10.3057 3.48156 9.34762L2.97808 6.70667C2.79461 5.74341 2.68389 5.14398 2.65956 4.69753C2.63757 4.29371 2.70061 4.2017 2.71923 4.17452C2.71949 4.17415 2.71974 4.17379 2.71998 4.17343C2.72025 4.17303 2.72054 4.1726 2.72084 4.17216C2.73938 4.14487 2.80218 4.05237 3.18592 3.92555C3.61045 3.78527 4.20926 3.67055 5.17302 3.48984L5.31019 3.46319C6.26901 3.28341 6.86581 3.17489 7.30996 3.15184C7.71067 3.1311 7.80274 3.1942 7.83008 3.21295C7.83054 3.21327 7.83099 3.21357 7.83141 3.21386L7.83254 3.21463C7.86013 3.23334 7.95275 3.29616 8.07959 3.67673C8.16618 3.93655 8.24338 4.26203 8.33254 4.69753L9.44313 3.92555C9.23192 3.03147 9.00177 2.4997 8.53517 2.18143C7.85231 1.71565 6.92865 1.88884 5.08087 2.2353L5.07987 2.23548Z" fill="black"/>
<path d="M11.6476 4.55571C10.7338 4.32728 10.1082 4.17318 9.62277 4.11832C9.15526 4.06553 8.90891 4.11747 8.71937 4.22847C8.52985 4.33947 8.36384 4.5286 8.18116 4.96214C7.99147 5.41237 7.82048 6.03364 7.57264 6.94241L6.67802 10.2227C6.42042 11.1672 6.24489 11.8147 6.1784 12.3173C6.11428 12.802 6.1668 13.0553 6.28079 13.25C6.39476 13.4446 6.59011 13.6139 7.04395 13.795C7.51488 13.9829 8.16586 14.1471 9.1158 14.3846L9.35258 14.4443C10.2663 14.6727 10.8917 14.8277 11.3772 14.8826C11.8447 14.9354 12.0912 14.8825 12.2808 14.7715C12.4702 14.6605 12.6363 14.4713 12.819 14.0378C13.0087 13.5876 13.1797 12.9663 13.4275 12.0576L14.3221 8.77727C14.5797 7.83279 14.7553 7.18525 14.8217 6.68266C14.8859 6.19802 14.8333 5.94462 14.7194 5.74998C14.6054 5.55539 14.41 5.3861 13.9562 5.20496C13.4853 5.01703 12.8343 4.85287 11.8843 4.61539L11.6476 4.55571Z" stroke="black" stroke-width="1.25"/>
</svg>
