<svg xmlns="http://www.w3.org/2000/svg" xmlns:xlink="http://www.w3.org/1999/xlink" preserveAspectRatio="xMidYMid meet" width="320" height="320" viewBox="0 0 320 320" style="width:100%;height:100%"><defs><animate repeatCount="indefinite" dur="1.6s" begin="0s" xlink:href="#_R_G_L_4_G_D_0_P_0" fill="freeze" attributeName="d" attributeType="XML" from="M65.83 131.67 C87.7,131.67 105.43,72.72 105.43,0 C105.43,-72.72 87.7,-131.67 65.83,-131.67 " to="M65.83 131.67 C138.64,131.67 197.65,72.72 197.65,0 C197.65,-72.72 138.64,-131.67 65.83,-131.67 " keyTimes="0;0.35;1" values="M65.83 131.67 C87.7,131.67 105.43,72.72 105.43,0 C105.43,-72.72 87.7,-131.67 65.83,-131.67 ;M65.83 131.67 C138.64,131.67 197.65,72.72 197.65,0 C197.65,-72.72 138.64,-131.67 65.83,-131.67 ;M65.83 131.67 C138.64,131.67 197.65,72.72 197.65,0 C197.65,-72.72 138.64,-131.67 65.83,-131.67 " keySplines="0.167 0.167 0.833 0.833;0 0 0 0" calcMode="spline"/><animate repeatCount="indefinite" dur="1.6s" begin="0s" xlink:href="#_R_G_L_4_G_M" fill="freeze" attributeName="opacity" from="1" to="0" keyTimes="0;0.35;0.35;1" values="1;1;0;0" keySplines="0 0 0 0;0 0 0 0;0 0 0 0" calcMode="spline"/><animate repeatCount="indefinite" dur="1.6s" begin="0s" xlink:href="#_R_G_L_3_G_D_0_P_0" fill="freeze" attributeName="d" attributeType="XML" from="M65.83 131.67 C40.41,131.67 19.8,72.72 19.8,0 C19.8,-72.72 40.41,-131.67 65.83,-131.67 " to="M65.83 131.67 C138.64,131.67 197.65,72.72 197.65,0 C197.65,-72.72 138.64,-131.67 65.83,-131.67 " keyTimes="0;0.675;1" values="M65.83 131.67 C40.41,131.67 19.8,72.72 19.8,0 C19.8,-72.72 40.41,-131.67 65.83,-131.67 ;M65.83 131.67 C138.64,131.67 197.65,72.72 197.65,0 C197.65,-72.72 138.64,-131.67 65.83,-131.67 ;M65.83 131.67 C138.64,131.67 197.65,72.72 197.65,0 C197.65,-72.72 138.64,-131.67 65.83,-131.67 " keySplines="0.167 0.167 0.833 0.833;0 0 0 0" calcMode="spline"/><animate repeatCount="indefinite" dur="1.6s" begin="0s" xlink:href="#_R_G_L_3_G_M" fill="freeze" attributeName="opacity" from="1" to="0" keyTimes="0;0.675;0.675;1" values="1;1;0;0" keySplines="0 0 0 0;0 0 0 0;0 0 0 0" calcMode="spline"/><animate repeatCount="indefinite" dur="1.6s" begin="0s" xlink:href="#_R_G_L_2_G_D_0_P_0" fill="freeze" attributeName="d" attributeType="XML" from="M65.83 131.67 C-6.88,131.67 -65.83,72.72 -65.83,0 C-65.83,-72.72 -6.88,-131.67 65.83,-131.67 " to="M65.83 131.67 C138.64,131.67 197.65,72.72 197.65,0 C197.65,-72.72 138.64,-131.67 65.83,-131.67 " keyTimes="0;0.975;1" values="M65.83 131.67 C-6.88,131.67 -65.83,72.72 -65.83,0 C-65.83,-72.72 -6.88,-131.67 65.83,-131.67 ;M65.83 131.67 C135,131.67 191.07,72.72 191.07,0 C191.07,-72.72 135,-131.67 65.83,-131.67 ;M65.83 131.67 C138.64,131.67 197.65,72.72 197.65,0 C197.65,-72.72 138.64,-131.67 65.83,-131.67 " keySplines="0.167 0.167 0.833 0.833;0.167 0.167 0.833 0.833" calcMode="spline"/><animate repeatCount="indefinite" dur="1.6s" begin="0s" xlink:href="#_R_G_L_1_G_D_0_P_0" fill="freeze" attributeName="d" attributeType="XML" from="M65.83 131.67 C-6.88,131.67 -65.83,72.72 -65.83,0 C-65.83,-72.72 -6.88,-131.67 65.83,-131.67 " to="M65.83 131.67 C87.7,131.67 105.43,72.72 105.43,0 C105.43,-72.72 87.7,-131.67 65.83,-131.67 " keyTimes="0;0.325;0.975;1" values="M65.83 131.67 C-6.88,131.67 -65.83,72.72 -65.83,0 C-65.83,-72.72 -6.88,-131.67 65.83,-131.67 ;M65.83 131.67 C-6.88,131.67 -65.83,72.72 -65.83,0 C-65.83,-72.72 -6.88,-131.67 65.83,-131.67 ;M65.83 131.67 C87.7,131.67 105.43,72.72 105.43,0 C105.43,-72.72 87.7,-131.67 65.83,-131.67 ;M65.83 131.67 C87.7,131.67 105.43,72.72 105.43,0 C105.43,-72.72 87.7,-131.67 65.83,-131.67 " keySplines="0.167 0.167 0.833 0.833;0.167 0.167 0.833 0.833;0 0 0 0" calcMode="spline"/><animate repeatCount="indefinite" dur="1.6s" begin="0s" xlink:href="#_R_G_L_1_G_M" fill="freeze" attributeName="opacity" from="0" to="1" keyTimes="0;0.325;0.3250025;1" values="0;0;1;1" keySplines="0 0 0 0;0 0 0 0;0 0 0 0" calcMode="spline"/><animate repeatCount="indefinite" dur="1.6s" begin="0s" xlink:href="#_R_G_L_0_G_D_0_P_0" fill="freeze" attributeName="d" attributeType="XML" from="M65.83 131.67 C-6.88,131.67 -65.83,72.72 -65.83,0 C-65.83,-72.72 -6.88,-131.67 65.83,-131.67 " to="M65.83 131.67 C40.41,131.67 19.8,72.72 19.8,0 C19.8,-72.72 40.41,-131.67 65.83,-131.67 " keyTimes="0;0.65;0.975;1" values="M65.83 131.67 C-6.88,131.67 -65.83,72.72 -65.83,0 C-65.83,-72.72 -6.88,-131.67 65.83,-131.67 ;M65.83 131.67 C-6.88,131.67 -65.83,72.72 -65.83,0 C-65.83,-72.72 -6.88,-131.67 65.83,-131.67 ;M65.83 131.67 C40.41,131.67 19.8,72.72 19.8,0 C19.8,-72.72 40.41,-131.67 65.83,-131.67 ;M65.83 131.67 C40.41,131.67 19.8,72.72 19.8,0 C19.8,-72.72 40.41,-131.67 65.83,-131.67 " keySplines="0.167 0.167 0.833 0.833;0.167 0.167 0.833 0.833;0 0 0 0" calcMode="spline"/><animate repeatCount="indefinite" dur="1.6s" begin="0s" xlink:href="#_R_G_L_0_G_M" fill="freeze" attributeName="opacity" from="0" to="1" keyTimes="0;0.65;0.6500025;1" values="0;0;1;1" keySplines="0 0 0 0;0 0 0 0;0 0 0 0" calcMode="spline"/><animate attributeType="XML" attributeName="opacity" dur="2s" from="0" to="1" xlink:href="#time_group"/></defs><g id="_R_G"><g id="_R_G_L_8_G" transform=" translate(160, 160) translate(0, 0)"><path id="_R_G_L_8_G_D_0_P_0" stroke="#2a2e32" stroke-linecap="round" stroke-linejoin="round" fill="none" stroke-width="20.256" stroke-opacity="1" d=" M0 -131.67 C72.72,-131.67 131.67,-72.72 131.67,0 C131.67,72.72 72.72,131.67 0,131.67 C-72.72,131.67 -131.67,72.72 -131.67,0 C-131.67,-72.72 -72.72,-131.67 0,-131.67z "/><path id="_R_G_L_8_G_D_1_P_0" fill="#2a2e32" fill-opacity="1" fill-rule="nonzero" d=" M-121.54 -60.77 C-121.54,-60.77 121.54,-60.77 121.54,-60.77 C121.54,-60.77 121.54,-40.51 121.54,-40.51 C121.54,-40.51 -121.54,-40.51 -121.54,-40.51 C-121.54,-40.51 -121.54,-60.77 -121.54,-60.77z "/></g><g id="_R_G_L_7_G" transform=" translate(162.046, 210.641) translate(0, 0)"><path id="_R_G_L_7_G_D_0_P_0" fill="#2a2e32" fill-opacity="1" fill-rule="nonzero" d=" M-121.54 -10.13 C-121.54,-10.13 121.54,-10.13 121.54,-10.13 C121.54,-10.13 121.54,10.13 121.54,10.13 C121.54,10.13 -121.54,10.13 -121.54,10.13 C-121.54,10.13 -121.54,-10.13 -121.54,-10.13z "/></g><g id="_R_G_L_6_G" transform=" translate(94.167, 160) translate(0, 0)"><path id="_R_G_L_6_G_D_0_P_0" stroke="#2a2e32" stroke-linecap="round" stroke-linejoin="round" fill="none" stroke-width="20.256" stroke-opacity="1" d=" M65.83 131.67 C-6.88,131.67 -65.83,72.72 -65.83,0 C-65.83,-72.72 -6.88,-131.67 65.83,-131.67 "/></g><g id="_R_G_L_5_G" transform=" translate(94.167, 160) translate(0, 0)"><path id="_R_G_L_5_G_D_0_P_0" stroke="#2a2e32" stroke-linecap="round" stroke-linejoin="round" fill="none" stroke-width="20.256" stroke-opacity="1" d=" M65.83 131.67 C-6.88,131.67 -65.83,72.72 -65.83,0 C-65.83,-72.72 -6.88,-131.67 65.83,-131.67 "/></g><g id="_R_G_L_4_G_M"><g id="_R_G_L_4_G" transform=" translate(94.167, 160) translate(0, 0)"><path id="_R_G_L_4_G_D_0_P_0" stroke="#2a2e32" stroke-linecap="round" stroke-linejoin="round" fill="none" stroke-width="20.256" stroke-opacity="1" d=" M65.83 131.67 C87.7,131.67 105.43,72.72 105.43,0 C105.43,-72.72 87.7,-131.67 65.83,-131.67 "/></g></g><g id="_R_G_L_3_G_M"><g id="_R_G_L_3_G" transform=" translate(94.167, 160) translate(0, 0)"><path id="_R_G_L_3_G_D_0_P_0" stroke="#2a2e32" stroke-linecap="round" stroke-linejoin="round" fill="none" stroke-width="20.256" stroke-opacity="1" d=" M65.83 131.67 C40.41,131.67 19.8,72.72 19.8,0 C19.8,-72.72 40.41,-131.67 65.83,-131.67 "/></g></g><g id="_R_G_L_2_G" transform=" translate(94.167, 160) translate(0, 0)"><path id="_R_G_L_2_G_D_0_P_0" stroke="#2a2e32" stroke-linecap="round" stroke-linejoin="round" fill="none" stroke-width="20.256" stroke-opacity="1" d=" M65.83 131.67 C-6.88,131.67 -65.83,72.72 -65.83,0 C-65.83,-72.72 -6.88,-131.67 65.83,-131.67 "/></g><g id="_R_G_L_1_G_M"><g id="_R_G_L_1_G" transform=" translate(94.167, 160) translate(0, 0)"><path id="_R_G_L_1_G_D_0_P_0" stroke="#2a2e32" stroke-linecap="round" stroke-linejoin="round" fill="none" stroke-width="20.256" stroke-opacity="1" d=" M65.83 131.67 C-6.88,131.67 -65.83,72.72 -65.83,0 C-65.83,-72.72 -6.88,-131.67 65.83,-131.67 "/></g></g><g id="_R_G_L_0_G_M"><g id="_R_G_L_0_G" transform=" translate(94.167, 160) translate(0, 0)"><path id="_R_G_L_0_G_D_0_P_0" stroke="#2a2e32" stroke-linecap="round" stroke-linejoin="round" fill="none" stroke-width="20.256" stroke-opacity="1" d=" M65.83 131.67 C-6.88,131.67 -65.83,72.72 -65.83,0 C-65.83,-72.72 -6.88,-131.67 65.83,-131.67 "/></g></g></g><g id="time_group"/></svg>