<svg width="17" height="17" viewBox="0 0 17 17" fill="none" xmlns="http://www.w3.org/2000/svg">
<path d="M6.97168 8.44629C7.04334 8.73292 7.26708 8.95666 7.55371 9.02832L9.4375 9.5L7.55371 9.97168C7.30282 10.0344 7.0996 10.2133 7.00488 10.4492L6.97168 10.5537L6.5 12.4375L6.02832 10.5537L5.99512 10.4492C5.9004 10.2132 5.69719 10.0344 5.44629 9.97168L3.56152 9.5L5.44629 9.02832C5.73292 8.95666 5.95666 8.73292 6.02832 8.44629L6.5 6.56152L6.97168 8.44629Z" stroke="black"/>
<path d="M11.5 4.00684C11.5801 4.23789 11.7613 4.41969 11.9922 4.5C11.7618 4.5801 11.5804 4.76099 11.5 4.99121C11.4195 4.7607 11.2376 4.57995 11.0068 4.5C11.2382 4.41985 11.4198 4.23818 11.5 4.00684Z" stroke="black"/>
<circle cx="10.5" cy="14.5" r="0.5" fill="black"/>
</svg>
