<svg xmlns="http://www.w3.org/2000/svg" xmlns:xlink="http://www.w3.org/1999/xlink" preserveAspectRatio="xMidYMid meet" width="320" height="320" viewBox="0 0 320 320" style="width:100%;height:100%"><defs><animateMotion repeatCount="indefinite" dur="3.1166667s" begin="0s" xlink:href="#_R_G_L_0_G" fill="freeze" keyTimes="0;0.2192513;0.3475936;0.5828877;0.6951872;0.9197861;1" path="M261.99 256.98 C261.99,256.98 268.67,240.3 268.67,240.3 C268.67,240.3 268.67,240.3 268.67,240.3 C268.67,240.3 261.34,260.55 235.29,285.35 C235.29,285.35 235.29,285.35 235.29,285.35 C235.29,285.35 261.99,256.98 261.99,256.98 C261.99,256.98 261.99,256.98 261.99,256.98 " keyPoints="0;0.16;0.16;0.66;0.66;1;1" keySplines="0.5 0 0 1;0.5 0.5 0 0;0.5 0 0 1;0.5 0.5 0 0;0.5 0 0 1;0 0 0 0" calcMode="spline"/><animateTransform repeatCount="indefinite" dur="3.1166667s" begin="0s" xlink:href="#_R_G_L_0_G" fill="freeze" attributeName="transform" from="0" to="0" type="rotate" additive="sum" keyTimes="0;0.2192513;0.3475936;0.5828877;0.6951872;0.9197861;1" values="0;10.134;10.134;-10.77;-10.77;0;0" keySplines="0.5 0 0 1;0.5 0 0 1;0.5 0 0 1;0.5 0 0 1;0.5 0 0 1;0 0 0 0" calcMode="spline"/><animateTransform repeatCount="indefinite" dur="3.1166667s" begin="0s" xlink:href="#_R_G_L_0_G" fill="freeze" attributeName="transform" from="-261.99 -256.984" to="-261.99 -256.984" type="translate" additive="sum" keyTimes="0;1" values="-261.99 -256.984;-261.99 -256.984" keySplines="0 0 1 1" calcMode="spline"/><animate attributeType="XML" attributeName="opacity" dur="3s" from="0" to="1" xlink:href="#time_group"/></defs><g id="_R_G"><g id="_R_G_L_0_G"><path id="_R_G_L_0_G_D_0_P_0" fill="#2a2e32" fill-opacity="1" fill-rule="nonzero" d=" M198.43 207.44 C198.43,207.44 274.58,283.59 274.58,283.59 C278.49,287.49 284.82,287.49 288.72,283.59 C292.63,279.68 292.63,273.35 288.72,269.45 C288.72,269.45 212.57,193.3 212.57,193.3 C212.57,193.3 198.43,207.44 198.43,207.44z "/><path id="_R_G_L_0_G_D_1_P_0" fill="#2a2e32" fill-opacity="1" fill-rule="nonzero" d=" M146.27 46.52 C94.02,46.52 51.65,88.89 51.65,141.14 C51.65,193.39 94.02,235.76 146.27,235.76 C198.52,235.76 240.89,193.39 240.89,141.14 C240.89,88.89 198.52,46.52 146.27,46.52z  M71.65 141.14 C71.65,99.93 105.06,66.52 146.27,66.52 C187.48,66.52 220.89,99.93 220.89,141.14 C220.89,182.35 187.48,215.76 146.27,215.76 C105.06,215.76 71.65,182.35 71.65,141.14z "/></g></g><g id="time_group"/></svg>