<svg xmlns="http://www.w3.org/2000/svg" xmlns:xlink="http://www.w3.org/1999/xlink" preserveAspectRatio="xMidYMid meet" width="320" height="320" viewBox="0 0 320 320" style="width:100%;height:100%"><defs><animate repeatCount="indefinite" dur="3.4333333s" begin="0s" xlink:href="#_R_G_L_2_G" fill="freeze" attributeName="opacity" from="1" to="1" keyTimes="0;0.0194175;0.0893155;0.1456311;0.2097087;0.5;0.5194175;0.5893155;0.6456311;0.7097087;1" values="1;1;0;0;1;1;1;0;0;1;1" keySplines="0.167 0.167 0.833 0.833;0.167 0.167 0.833 0.833;0.167 0.167 0.833 0.833;0.167 0.167 0.833 0.833;0.167 0.167 0.833 0.833;0.167 0.167 0.833 0.833;0.167 0.167 0.833 0.833;0.167 0.167 0.833 0.833;0.167 0.167 0.833 0.833;0 0 0 0" calcMode="spline"/><animateTransform repeatCount="indefinite" dur="3.4333333s" begin="0s" xlink:href="#_R_G_L_2_G" fill="freeze" attributeName="transform" from="10 10" to="10 10" type="scale" additive="sum" keyTimes="0;0.0203883;0.1252379;0.2184466;0.5;0.5213641;0.6262136;0.731068;1" values="10 10;10 10;6 6;9 9;9.99712 9.99712;10 10;6 6;10 10;10 10" keySplines="0.315 0 0.648 1;0.9 0 0.833 0.833;0.167 0.167 0.08 0.621;0.018 0.067 0.263 0.943;0.326 0.66 0.659 1;0.9 0 0.833 0.833;0.167 0.167 0.1 1;0 0 0 0" calcMode="spline"/><animate repeatCount="indefinite" dur="3.4333333s" begin="0s" xlink:href="#_R_G_L_1_G" fill="freeze" attributeName="opacity" from="0.37493000000000004" to="1" keyTimes="0;0.0262039;0.0825194;0.1465922;0.4563058;0.4999951;0.5262039;0.5825194;0.6465922;0.9951408;1" values="0.37493000000000004;0;0;1;1;0.37493000000000004;0;0;1;1;1" keySplines="0.167 0.167 0.833 0.833;0.167 0.167 0.833 0.833;0.167 0.167 0.833 0.833;0.167 0.167 0.833 0.833;0.167 0.167 0.833 0.833;0.167 0.167 0.833 0.833;0.167 0.167 0.833 0.833;0.167 0.167 0.833 0.833;0.167 0.167 0.833 0.833;0 0 0 0" calcMode="spline"/><animateTransform repeatCount="indefinite" dur="3.4333333s" begin="0s" xlink:href="#_R_G_L_1_G" fill="freeze" attributeName="transform" from="9.71252 9.71252" to="10 10" type="scale" additive="sum" keyTimes="0;0.0631019;0.167966;0.4592282;0.4999951;0.5640777;0.668932;0.9601942;1" values="9.71252 9.71252;6 6;9 9;10 10;9.72803 9.72803;6 6;10 10;10 10;10 10" keySplines="0.807 0.222 0.773 0.853;0.167 0.167 0.102 0.621;0.034 0.133 0.26 1;0.403 0 0.731 0.372;0.81 0.217 0.775 0.852;0.167 0.167 0.1 1;0.74 0 0.26 1;0 0 0 0" calcMode="spline"/><animate repeatCount="indefinite" dur="3.4333333s" begin="0s" xlink:href="#_R_G_L_0_G" fill="freeze" attributeName="opacity" from="0" to="1" keyTimes="0;0.0242718;0.0883447;0.3980583;0.4679515;0.5242718;0.5883447;0.9330049;1" values="0;0;1;1;0;0;1;1;1" keySplines="0.167 0.167 0.833 0.833;0.167 0.167 0.833 0.833;0.167 0.167 0.833 0.833;0.167 0.167 0.833 0.833;0.167 0.167 0.833 0.833;0.167 0.167 0.833 0.833;0.167 0.167 0.833 0.833;0 0 0 0" calcMode="spline"/><animateTransform repeatCount="indefinite" dur="3.4333333s" begin="0s" xlink:href="#_R_G_L_0_G" fill="freeze" attributeName="transform" from="10 10" to="10 10" type="scale" additive="sum" keyTimes="0;0.000966;0.1058301;0.3970922;0.5019417;0.6067961;0.8980583;1" values="10 10;6 6;9 9;10 10;6 6;10 10;10 10;10 10" keySplines="0.9 0 0.833 0.833;0.167 0.167 0.08 0.612;0.017 0.053 0.26 1;0.9 0 0.833 0.833;0.167 0.167 0.1 1;0.74 0 0.26 1;0 0 0 0" calcMode="spline"/><animate attributeType="XML" attributeName="opacity" dur="2s" from="0" to="1" xlink:href="#time_group"/></defs><g id="_R_G"><g id="_R_G_L_3_G" transform=" translate(160, 160) scale(10, 10) translate(0, 0)"><path id="_R_G_L_3_G_D_0_P_0" fill="#2a2e32" fill-opacity="1" fill-rule="nonzero" d=" M-2 -11 C-1.45,-11 -1,-10.55 -1,-10 C-1,-9.45 -1.45,-9 -2,-9 C-2,-9 -6,-9 -6,-9 C-7.66,-9 -9,-7.66 -9,-6 C-9,-6 -9,6 -9,6 C-9,7.66 -7.66,9 -6,9 C-6,9 6,9 6,9 C7.66,9 9,7.66 9,6 C9,6 9,2 9,2 C9,1.45 9.45,1 10,1 C10.55,1 11,1.45 11,2 C11,2 11,6 11,6 C11,8.76 8.76,11 6,11 C6,11 -6,11 -6,11 C-8.76,11 -11,8.76 -11,6 C-11,6 -11,-6 -11,-6 C-11,-8.76 -8.76,-11 -6,-11 C-6,-11 -2,-11 -2,-11z "/></g><g id="_R_G_L_2_G" transform=" translate(230, 90.003)"><path id="_R_G_L_2_G_D_0_P_0" fill="#2a2e32" fill-opacity="1" fill-rule="nonzero" d=" M0 -1.75 C-0.25,-0.91 -0.91,-0.25 -1.75,0 C-1.75,0 -1.77,0 -1.77,0 C-1.77,0 -1.75,0 -1.75,0 C-1.01,0.22 -0.42,0.75 -0.12,1.45 C-0.12,1.45 0,1.75 0,1.75 C0,1.75 0,1.77 0,1.77 C0,1.77 0,1.75 0,1.75 C0.25,0.91 0.91,0.25 1.75,0 C1.75,0 1.77,0 1.77,0 C1.77,0 1.75,0 1.75,0 C0.91,-0.25 0.25,-0.91 0,-1.75 C0,-1.75 0,-1.77 0,-1.77 C0,-1.77 0,-1.75 0,-1.75z "/><path id="_R_G_L_2_G_D_0_P_1" fill="#2a2e32" fill-opacity="1" fill-rule="nonzero" d=" M-0.57 -6.96 C-0.41,-7.54 0.41,-7.54 0.57,-6.96 C0.57,-6.96 1.92,-2.32 1.92,-2.32 C1.97,-2.12 2.13,-1.97 2.32,-1.91 C2.32,-1.91 6.96,-0.57 6.96,-0.57 C7.54,-0.41 7.54,0.41 6.96,0.57 C6.96,0.57 2.32,1.91 2.32,1.91 C2.13,1.97 1.97,2.13 1.92,2.32 C1.92,2.32 0.68,6.6 0.68,6.6 C0.68,6.6 0.57,6.96 0.57,6.96 C0.42,7.5 -0.31,7.54 -0.53,7.07 C-0.53,7.07 -0.57,6.96 -0.57,6.96 C-0.57,6.96 -0.68,6.6 -0.68,6.6 C-0.68,6.6 -1.91,2.32 -1.91,2.32 C-1.96,2.18 -2.05,2.05 -2.18,1.97 C-2.18,1.97 -2.32,1.91 -2.32,1.91 C-2.32,1.91 -6.96,0.57 -6.96,0.57 C-7.54,0.41 -7.54,-0.41 -6.96,-0.57 C-6.96,-0.57 -2.32,-1.91 -2.32,-1.91 C-2.12,-1.97 -1.97,-2.12 -1.91,-2.32 C-1.91,-2.32 -0.57,-6.96 -0.57,-6.96z "/></g><g id="_R_G_L_1_G" transform=" translate(140.001, 140.003)"><path id="_R_G_L_1_G_D_0_P_0" fill="#2a2e32" fill-opacity="1" fill-rule="nonzero" d=" M-0.56 -1.96 C-0.4,-2.53 0.4,-2.53 0.56,-1.96 C0.56,-1.96 0.79,-1.19 0.79,-1.19 C0.84,-1 1,-0.84 1.19,-0.79 C1.19,-0.79 1.96,-0.56 1.96,-0.56 C2.53,-0.4 2.53,0.4 1.96,0.56 C1.96,0.56 1.19,0.79 1.19,0.79 C1,0.84 0.84,1 0.79,1.19 C0.79,1.19 0.67,1.61 0.67,1.61 C0.67,1.61 0.56,1.96 0.56,1.96 C0.41,2.49 -0.3,2.53 -0.53,2.06 C-0.53,2.06 -0.56,1.96 -0.56,1.96 C-0.56,1.96 -0.67,1.61 -0.67,1.61 C-0.67,1.61 -0.79,1.19 -0.79,1.19 C-0.84,1 -1,0.84 -1.19,0.79 C-1.19,0.79 -1.96,0.56 -1.96,0.56 C-2.53,0.4 -2.53,-0.4 -1.96,-0.56 C-1.96,-0.56 -1.61,-0.67 -1.61,-0.67 C-1.61,-0.67 -1.19,-0.79 -1.19,-0.79 C-1.04,-0.83 -0.92,-0.92 -0.85,-1.05 C-0.85,-1.05 -0.79,-1.19 -0.79,-1.19 C-0.79,-1.19 -0.56,-1.96 -0.56,-1.96z "/></g><g id="_R_G_L_0_G" transform=" translate(195, 195) rotate(270)"><path id="_R_G_L_0_G_D_0_P_0" fill="#2a2e32" fill-opacity="1" fill-rule="nonzero" d=" M0 -1.36 C0.75,-1.36 1.36,-0.75 1.36,0 C1.36,0.75 0.75,1.36 0,1.36 C-0.75,1.36 -1.36,0.75 -1.36,0 C-1.36,-0.75 -0.75,-1.36 0,-1.36z "/></g></g><g id="time_group"/></svg>