<svg width="17" height="17" viewBox="0 0 17 17" fill="none" xmlns="http://www.w3.org/2000/svg">
<path fill-rule="evenodd" clip-rule="evenodd" d="M5.3792 3.125C5.3792 2.77982 5.65 2.5 5.98406 2.5H14.4522C14.7862 2.5 15.057 2.77982 15.057 3.125C15.057 3.47018 14.7862 3.75 14.4522 3.75H5.98406C5.65 3.75 5.3792 3.47018 5.3792 3.125Z" fill="#171A1C"/>
<path fill-rule="evenodd" clip-rule="evenodd" d="M3.5646 3.74999L2.35487 3.75C2.02081 3.75 1.75 3.47019 1.75 3.12501C1.75 2.77984 2.0208 2.50001 2.35486 2.50001L3.56459 2.5C3.89865 2.5 4.16946 2.77981 4.16946 3.12499C4.16947 3.47016 3.89866 3.74999 3.5646 3.74999Z" fill="#171A1C"/>
<path fill-rule="evenodd" clip-rule="evenodd" d="M5.3792 6.70831C5.3792 6.36314 5.65 6.08331 5.98406 6.08331H14.4522C14.7862 6.08331 15.057 6.36314 15.057 6.70831C15.057 7.05349 14.7862 7.33331 14.4522 7.33331H5.98406C5.65 7.33331 5.3792 7.05349 5.3792 6.70831Z" fill="#171A1C"/>
<path fill-rule="evenodd" clip-rule="evenodd" d="M3.5646 7.3333L2.35487 7.33331C2.02081 7.33332 1.75 7.0535 1.75 6.70832C1.75 6.36315 2.0208 6.08333 2.35486 6.08332L3.56459 6.08331C3.89865 6.08331 4.16946 6.36313 4.16946 6.7083C4.16947 7.05348 3.89866 7.3333 3.5646 7.3333Z" fill="#171A1C"/>
<path fill-rule="evenodd" clip-rule="evenodd" d="M5.3792 10.2917C5.3792 9.94651 5.65 9.66669 5.98406 9.66669H14.4522C14.7862 9.66669 15.057 9.94651 15.057 10.2917C15.057 10.6369 14.7862 10.9167 14.4522 10.9167H5.98406C5.65 10.9167 5.3792 10.6369 5.3792 10.2917Z" fill="#171A1C"/>
<path fill-rule="evenodd" clip-rule="evenodd" d="M3.5646 10.9167L2.35487 10.9167C2.02081 10.9167 1.75 10.6369 1.75 10.2917C1.75 9.94652 2.0208 9.6667 2.35486 9.6667L3.56459 9.66669C3.89865 9.66668 4.16946 9.9465 4.16946 10.2917C4.16947 10.6369 3.89866 10.9167 3.5646 10.9167Z" fill="#171A1C"/>
<path fill-rule="evenodd" clip-rule="evenodd" d="M5.3792 13.875C5.3792 13.5298 5.65 13.25 5.98406 13.25H14.4522C14.7862 13.25 15.057 13.5298 15.057 13.875C15.057 14.2202 14.7862 14.5 14.4522 14.5H5.98406C5.65 14.5 5.3792 14.2202 5.3792 13.875Z" fill="#171A1C"/>
<path fill-rule="evenodd" clip-rule="evenodd" d="M3.5646 14.5L2.35487 14.5C2.02081 14.5 1.75 14.2202 1.75 13.875C1.75 13.5298 2.0208 13.25 2.35486 13.25L3.56459 13.25C3.89865 13.25 4.16946 13.5298 4.16946 13.875C4.16947 14.2202 3.89866 14.5 3.5646 14.5Z" fill="#171A1C"/>
</svg>
